<?xml version="1.0" encoding="UTF-8"?> <!DOCTYPE svg PUBLIC "-//W3C//DTD SVG 1.1//EN" "http://www.w3.org/Graphics/SVG/1.1/DTD/svg11.dtd"> <svg xmlns="http://www.w3.org/2000/svg" xml:space="preserve" width="118.07mm" height="64.68mm" version="1.1" style="shape-rendering:geometricPrecision; text-rendering:geometricPrecision; image-rendering:optimizeQuality; fill-rule:evenodd; clip-rule:evenodd" viewBox="0 0 11807 6468" xmlns:xlink="http://www.w3.org/1999/xlink" xmlns:xodm="http://www.corel.com/coreldraw/odm/2003"> <defs> <style type="text/css"> <![CDATA[ .fil1 {fill:black} .fil2 {fill:#5A5A5A} .fil0 {fill:#CCCCCC} ]]> </style> </defs> <g id="Layer_x0020_1"> <polygon id="A" class="fil0" points="-6.66,0.61 11800.82,0.61 11800.82,6468.39 -6.66,6468.39 "> </polygon> <path id="C" class="fil1" d="M11344.71 2725.78l0 21.53 0 147.21c49.77,-22.71 83.61,-119.79 76.12,-169.26l-76.12 0.52zm-10904.52 0l0 21.52 0 147.21c49.78,-22.71 83.61,-119.78 76.12,-169.24l-76.12 0.51zm10446.88 1081.53c75.99,-32.45 78.43,-34.78 129.8,-64.22 89.13,-51.09 68,-18.51 113.72,-104.82 -39.19,-20.36 -132.47,-22.24 -180.8,1.09 -51.22,24.72 -89.9,110.42 -62.72,167.95zm-940.97 377.39c23.43,12.32 71.96,42.03 126.49,50.61 51.08,8 108.08,-4.44 137.82,-9.64 -12.84,-48.2 -59.76,-107.78 -115.72,-115.4 -61.21,-8.32 -132.05,39.04 -148.59,74.43zm-8522.78 -199.41l194.89 -18.9c-52.2,-52.97 -184.14,-120.26 -253.19,-124.45 8.56,65.03 6.96,94.52 58.3,143.35zm6731.01 -558.88c-107.78,-82.29 -288.11,-284.9 -362.18,-369.76 -102.1,127.26 -50.83,406.42 68.25,489.55 122.89,85.8 379.12,282.73 421.08,18.09l203.15 153.99c-42.83,-117.09 -411.9,-875.22 -522.96,-1071.94 -73.66,-130.5 -195.29,-322.53 -288.72,-341.9 -80.22,194.76 47.34,479.2 144.23,644.24 78.34,133.42 242.6,343.72 337.15,477.73zm-1262.88 1949.41c78.68,-13.52 143.56,-101.48 180.41,-178.29 36.26,-75.52 53.08,-180.32 61.72,-262.54 -117.52,-143.73 -246.77,-27.51 -280.48,120.15 -24.73,108.26 8.03,254.62 38.35,320.68zm389.34 -1096.69c-150.41,131.55 -160.81,130.6 -169.83,273.94 98.31,83.24 268.55,72.76 341.91,-61.3 53.51,-97.77 82.76,-122.36 60.66,-257.59l-232.74 44.95zm-5778.85 -4278.52c12.04,20.86 27.34,39.35 46.48,54.45 55.04,-4.3 114.05,-18.57 156.23,-54.45l-202.71 0zm-85.27 181.94c103.47,88.55 291.85,596.87 413.78,613.86 12.94,-107.87 -153.02,-400.49 -216.91,-506.5 -34.5,-57.22 -96.84,-178.24 -157.94,-289.3l-87.54 0 48.61 181.94zm8485.62 2454.7c106.55,2.99 174,-96.68 164.74,-188.81l-95.91 -62.81 -68.83 251.62zm-4731.59 1538.95c82.29,6.26 204.94,33.66 276.85,56.23 114.75,36.05 76.6,70.96 169.62,105.67 37.23,-54.5 86.18,-143.3 67.9,-208.64 -19.58,-69.86 -127.76,-127.95 -199.99,-149.09 -110.08,-32.23 -315.59,10.75 -314.38,195.83zm-2222.14 1301.51c-24.37,-104.21 -72.16,-134.91 -133.65,-200.36 -22.16,-135.57 66.36,-97.24 35.38,-247.09 -147.75,-15.61 -337.13,68.37 -216.73,338.02 43.08,149.28 231.72,287.41 315,109.43zm7569.32 -472.27c31.27,-65.51 26.27,-199.43 -16.21,-293.17 -43.53,-96 -143.52,-173.75 -221.2,-178.61 -108.41,76.61 -83.97,213.35 -26.62,313.51 51.39,89.8 155.94,201.88 264.03,158.27zm-9832.13 -2482.44c30.1,-43.64 53.69,-120.67 36.78,-174.06 -17.12,-54.03 -75.39,-84.25 -142.45,-80.76 -4.53,34.12 -15.87,95.1 3.93,143.26 21.07,51.24 74.39,89.4 101.74,111.56zm9386.21 3086.31c78.76,4.89 210.02,-81.66 255.41,-193.73 40.37,-99.71 4.45,-221.82 -67.88,-285.52 -86.24,0.11 -178.11,62.83 -213.64,159.2 -38.73,105.03 -15.73,247.33 26.11,320.05zm-7070.11 650.46c109.43,-124.84 -35.46,-181.09 -54.61,-290.3 -25.08,-142.92 49.43,-188.22 -7.21,-300.59 -118.23,6.7 -256.22,188.05 -258.71,308.23 -2.77,131.26 155.81,316.53 320.53,282.66zm6287.64 -46.46c66.54,-103.92 -54.52,-231.89 -118.07,-281.91 -75.69,-59.57 -87.99,-110.64 -118.52,-192.45l-151.24 15.66c-170.29,193.49 101.46,558.65 387.83,458.7zm-5488.65 -2559.29c110.16,20.55 206.23,-21.37 279.78,59.07 54.63,59.8 64.38,201.34 173.36,200.12 107.69,-90.87 94.99,-426.9 -63.91,-479.2 -143.04,-61.07 -474.29,43.44 -389.23,220.01zm625.38 451.88l266.21 18.29c88.19,100.65 29.51,144.66 155.99,201.45 122.29,-72.53 91.42,-402.98 -86.39,-466.83 -145.8,-52.35 -509.58,81.17 -335.81,247.09zm6327.54 650.8l125.48 -145.48c-21.17,-71.52 -52.01,-126.4 -112.89,-158.21 -68.28,79.49 -29.78,206.29 -12.59,303.69zm-3668.08 1608.94c9.69,39.68 42.62,72.73 78.04,102.75l264.81 0c135.49,-67.05 254.31,-186.04 141.08,-311.24 -148.06,-163.69 -418.91,82.6 -483.93,208.49zm-25.86 -136.13c-71.71,-81.85 -302.28,-108.11 -356.44,-15.05 -38.33,65.88 -77.85,163.94 -87.6,253.93l379.68 0c44.23,-70.3 70.42,-155.58 64.36,-238.88zm1043.91 -2334.32c83.87,13.02 258.39,-2.28 305.67,-64.53 -48.12,-52.6 -157.17,-103.84 -227.07,-115.26l-78.6 179.79zm-6107.13 257.49c15.61,93.09 52.68,153.99 136.88,177.15l70.16 -60.89c-18.36,-35.43 -91.91,-118.04 -123.42,-153.37l-83.62 37.11zm4804.09 -3704.86c86.82,18.8 94.53,23.14 153.93,87.43 56.38,61.03 106.2,57.65 178.11,12.72 -30.61,-171.09 -240.65,-167.76 -332.04,-100.15zm-318.46 -405.96c51.4,125.14 46.14,-16 39.91,201.96 143.06,71.92 134.34,-154.16 131.82,-159.46 -53.79,-60.7 -100,-59.16 -171.73,-42.5zm1505.35 3902.58l-51.76 124.42c53.31,59.27 171.24,92.19 243.42,48.93 13.11,-74.22 -28.2,-130.16 -85.94,-186.31l-105.72 12.96zm-765.12 1005.52c78.68,18.22 91.3,6.62 139.28,-55.88 42.16,-54.91 37.05,-64.44 35.9,-131.77 -73.53,-29.4 -130.16,-5.1 -153.43,47.71 -15.05,34.11 -23.71,99.46 -21.75,139.94zm-3837.64 -1946.3c76.59,-13.04 108.78,-34.07 142.32,-97.29 -16.84,-95.15 -73.73,-170.48 -169.81,-166.58l27.49 263.87zm6369.94 3197.84c21.84,77.49 87.37,120.04 153.81,150.8l90.24 -241.19 -127.65 -19.03 -116.4 109.42zm-7334.24 -4557.55c-4.19,81.84 26.85,178.33 100.13,219.75 80.31,-58.33 88.61,-153.71 86.5,-240.68 -90.1,43.84 -85.61,28.77 -186.63,20.93zm-1815.97 1383.59l66.5 -172.78 7.17 -53.84c-84.18,-1.45 -127.79,19.88 -155.63,107.12 -22.13,69.25 2.69,150.71 81.96,119.5zm8837.32 1025.87c36.92,25.7 126.19,39.35 172.28,22.9 48.23,-17.22 75.6,-79.95 74.87,-136.8 -44.72,-29.61 -73.53,-38.15 -135.83,-20.77 -81.07,22.6 -103.38,62.61 -111.32,134.67zm-9001.68 1359.35c99.64,33.18 149.03,92.44 225.14,63.46 33.82,-107.56 -138.84,-188.41 -225.14,-197.7l0 134.24zm3832.85 619.17c86.15,-3.25 73.66,-19.43 214.34,-7.7 22.37,-73.3 -33.43,-175.37 -91.07,-218.8 -82.81,37.13 -118.97,127.74 -123.27,226.5zm5325.8 -174.82c-30.74,-57.85 -32.99,-131.93 -72.99,-195.46 -52.34,-83.16 -122.1,-110.95 -205.98,-120.38 -15.26,144.15 96.31,314.21 278.97,315.84zm-332.24 -726.86l-41.79 -168.72 -70.76 9.19c-1.1,27 -9.58,156.01 -6.22,188.56 7.72,74.58 96.42,127.35 162.68,136.84l-43.91 -165.87zm-2975.56 -5003.74c63.39,85.42 55.6,91.08 54.98,194.47l97.72 29.33c30.46,-73.96 29.38,-148.49 9.39,-223.94l-155.91 -69.44 -6.18 69.58zm1641.5 832.79l110.62 29.24c84.4,26.08 215.77,8.77 245.33,-73.88 -74.68,-37.91 -120.86,-44.28 -196.29,-33.17 -82.69,12.2 -124.48,11.78 -159.66,77.81zm-1981.86 3398.49l248.94 20.34c48.69,-81.56 -25.65,-172.35 -89.06,-173.17 -62.78,-0.77 -163.14,73.98 -159.88,152.83zm2789.96 -273.78l-64.96 -79.41 -111.17 -65.97c-41.19,68.49 -0.59,226.04 45.23,276.09 66.44,-32.1 60.7,-37.24 153.26,-49.02l-22.36 -81.69zm2380.69 -1389.61c-2.44,63.51 7.34,142.62 82.85,178.32 45.06,-48.6 66.23,-72.07 98.56,-128.5 46.18,-80.56 34.68,-62.05 18.86,-155.36 -76.73,1.96 -150.37,46.98 -200.27,105.54zm-1356.49 1291.01c60.99,67.02 181.93,73.16 268.55,63.28 7.62,-84.71 -29.9,-147.61 -91.08,-159.85 -31.42,-6.32 -93.09,3.01 -131.06,8.15 -47.31,39.53 -26.37,38.46 -46.41,88.42zm701.49 195.39c132.79,8.84 106.75,4.65 203.92,-36.04 86.42,-36.19 124.76,-35.46 120.9,-131.51 -56.47,-17.86 -155.96,-38.22 -207.75,-20.95 -57.09,19.02 -118.6,108.19 -117.07,188.5zm-7307.33 2287.59l3.05 -24.82c-37.91,-1.44 -73.96,7.88 -105.79,24.82l102.74 0zm4315.99 -2432.28c64.48,49.58 118.52,61.56 195.76,45.27 86.44,-18.27 131.18,-40.21 153.67,-132.45 -74.01,-69.38 -306.59,2.84 -349.43,87.18zm-237.49 -3296.76l31.82 -5.02 20.49 27.47 181.58 116.09 95.77 -85.8c-71.52,-107.73 -183.76,-121.48 -301.79,-104.13l-31.35 26.1 3.48 25.29zm419.39 3078.13l-2.46 75.56c89.6,-0.74 67.78,11.51 135.63,-1.68 74.39,-14.48 161.64,-12.35 215.97,-167.98 -74.73,-35.92 -223.66,4.54 -310.63,43.9 -12.11,5.46 -28.39,45.7 -38.51,50.2zm3259.29 -3574.43c37.61,49.22 100.1,106.15 164.26,89.73 38.3,-72.89 4.47,-56.4 17.01,-154.31 55,-66.6 60.56,-55.54 56.35,-139.25 -98.63,4.73 -236.06,93.84 -237.62,203.83zm-6757.38 3862.64c17.78,-66.69 -9.17,-165.46 -60.6,-218.9 -53.24,-55.33 -166.05,-93.32 -263.87,-105.92 41.56,74.59 109.55,98.65 158.55,163.11 68.94,90.72 38.56,171.26 165.92,161.71zm6920.48 -1911.98c34.1,67.11 70.66,130.33 138.85,165.62 7.56,-19.51 59.67,-305.67 57.7,-326.79l-93.43 -38.18c-40.97,109.02 -45.81,105.59 -103.12,199.35zm-55.66 1141.99c46.16,-53.65 79.02,-89.12 113.09,-146.2 53.23,-89.1 57.26,-47.48 123.14,-114.52 -93.61,-62.01 -217.89,-62.55 -268,-9.21 -56.5,60.25 -35.86,215.94 31.77,269.93zm-8151.84 1375.57c-44.92,-30.9 -106.16,-59.11 -133.69,-107.32 -39.74,-69.51 -75.65,-144.57 -178.36,-159.59 -40.27,68.94 -43.21,196.93 14.72,253.56 79.6,77.82 200.66,45.9 297.33,13.35zm-2158.64 898.57c47.95,57.24 78.26,81.09 123.6,122.31 60.05,54.63 85.72,106.24 164,79.26 55.35,-103.47 -41.25,-211.1 -129.55,-263.15l-158.05 61.58zm6907.61 -5052.74c44.78,29.18 98.07,55.19 144.24,91.08 68.83,53.51 67.49,75.74 169.85,51.38 10.79,-71.83 -15.19,-139.52 -91.9,-172.73 -37.33,-16.17 -73.16,-18.78 -114.47,-15.33 -101.93,8.54 -107.51,45.41 -107.72,45.6zm-1220.97 1612.41c51.92,7.13 147.51,8.32 202.33,-9.01 65.69,-20.75 140.54,-99.92 157.8,-164.9 -97.54,-43.34 -125.68,-26.38 -209.75,-1.01 -90.8,27.37 -181.58,52.9 -150.38,174.92zm-3327.97 3220.83c12.29,-112.14 -7.94,-96.58 -12.89,-190.7 -5.91,-113.07 27.03,-108.74 -37.57,-191.11 -49.86,-11.09 -131.17,93.72 -129.44,196.32 1.63,96.93 82.03,191.97 179.9,185.49zm4956.37 1078.05c2.02,-118.56 -100.4,-169.06 -198.11,-170.15 -50.03,55.76 -105.44,98.66 -72.25,170.15l270.36 0zm-6171.42 -2698.37l5.31 -1.08c-14.79,-13.78 -26.65,-34.11 -46.19,-46.92 -95.48,-62.57 -241.76,-94.91 -311.54,9.08 27.85,83.43 92.14,127.77 175.36,117.44 88.12,-10.94 128.99,-19.39 177.06,-78.52zm6848.17 832.95c10,39.52 23.68,116.33 68.28,169.67 50.19,60.03 133.75,94.83 182.38,96.85 27.38,-105.19 -46.52,-231.55 -128.05,-291.41 -41.1,0.92 -102.26,-11.41 -122.61,24.89zm-5460.02 428.67l-7.38 -26.71 14.27 -76.14c-117.71,-8.55 -146.51,107.76 -147.98,205.45 -1.62,105.98 65.94,201.63 171.06,211.12 16.48,-107.74 -60.95,-212.29 -29.97,-313.72zm5070.57 -4366c71.31,43.18 119.06,79.76 206.39,115.44 130.15,53.17 157.73,34.31 295.66,-25.08 -80.9,-67.59 -126.1,-45.21 -213.6,-154.13 -75.86,5.4 -231.08,19.11 -288.45,63.77zm-4886.22 2542.03l13.34 282.89 79.85 54.06c38.06,-54.49 73.33,-143.83 67.98,-206.17 -4.76,-55.8 -45.05,-128.83 -98.78,-162.59l-62.39 31.81zm7092.68 1257.16c34.48,-73.8 2.29,-138.65 -10.7,-215.13l-334.3 -4.22c42.91,48.67 43.96,100.99 92.77,171.68 41.68,60.3 177.36,77.76 252.23,47.67zm-1982.84 9.72c68.51,-117.25 -37.17,-359.31 -197.23,-309.39 -44.7,149.38 78.33,314.5 197.23,309.39zm-8098.82 -4074.38l73.03 -41.28 38.11 -100.96 16.28 -68.25 -127.42 -2.57 -0.09 13.82 0 182.09 0.09 17.15zm10096.77 989.85c96.49,35.56 375.21,-80.6 344.04,-247.45 -131.75,-15.08 -140.95,-11.36 -238.89,51.25 -55.68,35.59 -110.21,131.44 -105.15,196.2zm-3479.77 -1103.7c66.36,42.5 129.13,73.13 183.07,132.9l15.09 122.47c40.05,2.82 169.56,-8.85 203.05,-58.48 53.34,-78.98 -15.61,-216.17 -161.8,-256.23 -64.88,-17.75 -198.25,2.9 -239.41,59.34zm2116.16 5311.19c-31.72,68.8 -21.23,183.96 36.13,264.71 59.93,84.36 169.11,133.19 239.49,147.64 -11.63,-83.05 -53.76,-160.06 -91.96,-236.22 -39.62,-79.02 -103.56,-206.45 -183.66,-176.13zm-4102.4 -1012.01c248.68,-104.26 217.97,14 424.95,-27.54 16.27,-112.51 -95.46,-205.08 -215.1,-185.56 -95.02,15.51 -200.97,119.73 -209.85,213.1zm1573.8 -140.01l28.37 -2.99 203.2 -90.8 31.63 -20.05 22.86 -23.56c40.19,-78.05 37.86,-60.4 23.86,-151.75 -108.12,-42.64 -261.42,144.95 -346.5,226.07l36.58 63.08zm-2271.4 -180.49c50.71,71.87 111.29,52.59 179.05,126.61 69.49,75.9 32.87,124.16 158.42,126.26 23.07,-85.08 -5.91,-207.75 -59.94,-260.86 -80.1,-78.67 -252.93,-95.48 -277.53,7.99zm6484.01 -3518.57c-8.18,94.21 45.26,194.48 156.43,182.73 21.19,-67.69 31.89,-98.97 66.71,-153.72 46.94,-73.85 43.63,-88.52 32.12,-195.36 -109.6,-52.78 -182.56,81.03 -255.26,166.35zm-8687.21 3313.35c15.29,57.95 46.72,134.49 97.96,175.43 65.62,52.42 158.18,56.5 230.3,-5.26l-228.12 -273.23 -100.14 103.06zm3697.35 -1952.52c-32.9,64.89 2.59,119.18 63.11,161.25 169.68,12.63 281.61,-48.22 307.35,-223.12 -25.04,-0.07 -360.13,56.43 -370.46,61.87zm1718.18 2389.62c55.23,13.66 159.83,-1.01 228.19,-52.57 74.08,-55.9 109.25,-151.91 89.29,-212.44 -64.22,-23.03 -188.21,-37.47 -259.9,21.55 -63.71,52.44 -80.98,173.06 -57.58,243.46zm2733.47 -447.31c99.03,-42.12 71.36,-70.5 130.22,-130.43 60.98,-62.1 143.23,2.49 169.16,-86.34 -28.54,-139.3 -197.01,-105.82 -270.33,-66.69 -26.82,14.31 -91.15,70.81 -106.55,123.27 -19.22,65.39 18.39,129.9 77.5,160.19zm-697.41 2418.82c-15.31,-13.13 -36.52,-24.11 -76.21,-71.7l-29.37 -168.01c-95.35,-7.45 -160.83,75.11 -170.78,164.69 -3.02,27.09 -2.2,51.97 1.94,75.02l274.42 0zm-1628.47 -2044.58c-36.31,148.86 197.27,269.8 366.37,165.08 -20.01,-106.07 -106.76,-153.24 -189.87,-215.58 -56.98,0.87 -136.39,12.17 -176.5,50.5zm-5917.63 36.12c-7.09,-83.76 -30.71,-108.34 -82.35,-184.58 -49.39,-72.89 -94.35,-130.99 -180.01,-143.96 -41.82,73.76 -59.6,187.48 -16.06,261.91 49.32,84.27 169.55,122.17 278.42,66.63zm8604.72 -739.05c145.1,120.72 177.76,-78.82 229.68,-106.17l141.02 -46.84c-7.93,-87.41 -130.26,-143.84 -224.23,-109.75 -78.52,28.49 -156.67,148.77 -146.47,262.76zm-6407.6 791.77c59.03,28.24 96.2,38.98 150.43,80.53 75.09,57.57 50.15,105.07 122.02,133.2l95.2 -33.04c4.52,-60.12 -53.76,-172.33 -139.44,-233.07 -92.77,-65.75 -216.26,-74.98 -286.46,5.69l58.25 46.69zm4853.69 886.68c3.89,-81.33 -50.25,-119.09 -116.38,-186.04 2.97,-100.43 24.07,-119.11 -15.95,-190.15 -129.13,-29.91 -206.28,141.35 -154.26,262.86 36.15,84.41 150.82,137.36 286.59,113.33zm-3334.61 -753.45c31.51,-43.76 278.29,11.16 347.32,12.03 17.32,-66.55 16.85,-114.93 -3.95,-186.07 -131.47,-51.21 -356.22,-6.25 -393.4,79.4 -11.28,26.04 13.15,68.38 50.03,94.64zm2632.6 106.91c6.65,49.63 0.48,132.77 38.92,185.86 54.59,75.4 166.2,110.77 247.29,79.73 66.99,-102.98 21.12,-163.48 -30.83,-233.84 -63.64,-86.2 -63.61,-124.59 -194.91,-143.55 -27.6,22.64 -36.77,74.23 -60.47,111.8zm-4883.86 -2100.72l169.83 8.22c58.01,-72.22 50.41,-151.91 7.56,-227.33 -49.27,-86.78 -117.22,-107.35 -219.56,-102.99 -80.88,98.16 -51.5,240.77 42.17,322.1zm-202.38 3359.1c-9.2,-60.28 -31.43,-107.22 -27.74,-166.23 3.94,-62.8 29.16,-90.48 33.65,-168.95l-78.66 -50.21c-92.9,76.16 -131.39,243.43 -115.64,355.8 42.31,50.89 72.83,124.31 140.4,142.86l47.99 -113.27zm3288.75 -6010.56c21.04,30.84 53.47,48.46 96.52,90.83 -3.83,79.59 12.93,42.38 18.41,137.77 110.66,18.14 275.57,-29.91 235.2,-228.6l-350.13 0zm-5673.85 3954.58c210.46,199.69 124.75,115.76 192.96,243.92 99.18,0.7 247.5,-8.16 306.56,-86.48 -52.48,-67.61 -121.87,-93.5 -195.29,-141.77 -141.17,-92.76 -170.16,-135.23 -304.23,-15.67zm7971.15 1588.41c-27.7,-101.46 -66.26,-78.8 -116.53,-143.28 -43.22,-55.44 -28.46,-100.41 -79.54,-164.02 -160.29,41.27 -192.44,190.68 -123.88,282.49 69.06,92.45 239.78,126.86 319.95,24.81zm-6373.63 -597.27c-14.16,-106 -34.83,-121.59 -88.78,-198.66 -66.1,-94.51 -47.35,-136.84 -48.12,-229.54 -145.85,-9.61 -234.51,151.84 -212.08,258.14 23.95,113.28 206,221.25 348.98,170.06zm7073.04 904.01l198.28 160.32c109.53,-29.9 166.9,-100.28 181.35,-217.39l-118.32 -137c-97.78,-0.32 -223.35,103.18 -261.31,194.07zm-5955.57 -1843.48c49.35,65.02 87.66,45.14 138.9,95.47 36.56,35.93 58.16,102.78 84.7,149.1l96.23 29.02c59.33,-60.11 27.78,-212.58 -31.43,-298.12 -61.94,-89.4 -202.83,-161 -304.96,-83.4l16.56 107.93zm3065.47 -202.77c92.26,12.85 193.82,-45.23 312.25,-63.95 146.29,-23.09 205.82,-15.22 228.53,-189.84 -71.66,-5.73 -112.27,-22.67 -184.8,-23.04 -116.54,-0.59 -64.14,-11.3 -165.39,-20.53 -57.7,54.13 -180.41,221 -190.59,297.36zm-40.13 271.77c73.75,5.32 106.02,13.09 174.21,-14.73 74.58,-30.44 94.31,-58.44 119.24,-129.68 -129.08,-78.21 -205.49,19.68 -293.45,144.41zm-781.61 57.59c92.96,9.8 179.19,23.32 267.24,40.82 93.35,18.56 125.65,7.45 224.91,-25.56 6.12,-117.07 -124.74,-236.45 -228.42,-243.79 -100.37,-7.12 -249.61,94.99 -263.73,228.53zm-2215.5 -948.05c110.6,1.99 194.1,-135.87 198.12,-231.39 3.67,-88.18 -69.08,-208.62 -192.11,-208.98 -41.67,53.03 -85.42,151.2 -81.73,217.57 3.33,60.16 25.98,166.76 75.72,222.8zm4726.84 -2364.81c-60.69,-80.32 -177.49,-34.7 -271.53,-28.65 49.97,32.02 207.39,95.12 271.53,28.65zm-703.42 -99.98c-24.96,-102.92 -163.85,-114.76 -203.77,-61.09 57.63,43.96 131.36,108.78 203.77,61.09zm3499.35 99.21c-71.35,65.07 -116.94,203.54 -52.9,288.25l101.29 -39.11c-1.39,-47.29 12.12,-94.52 29.44,-138.94 17.35,-44.54 14.85,-74.87 14.64,-110.27 -39.33,-6.86 -33.13,-54.06 -92.47,0.07zm111.6 2359.18c-56.84,13.92 -136.93,62.36 -150.09,114.71 -11.37,45.02 43.3,119.53 92.84,157.89l13.66 -124.27c68.46,-53.89 51.68,-56.59 43.59,-148.33zm-2291.87 1445.35c10.62,-67.42 -10.11,-239.17 -119.19,-208.54 -63.08,86.8 34.52,204.27 119.19,208.54zm1742.43 -349.15c9.8,53.47 77.09,137.02 126.24,151.97l27.31 -102.39c-43.02,-40.1 -97.2,-41.61 -153.55,-49.58zm-7643.37 1573.71c8.71,-86.26 11.02,-125.1 -4.08,-220.46 -72.2,-7.65 -137.54,79.99 -136.25,185.02 1.16,93.5 62.51,201.23 106.65,261.51 19.97,-52.54 26.48,-154.9 33.68,-226.07zm-206.49 -3065.23c82.35,-7.99 93.29,-112.97 89.93,-162.81l-90.66 -53.29c-11.11,68.83 -27.56,154.35 0.73,216.1zm3590.8 3684.71c26.02,-108.89 55,-251.28 -15.68,-305.94 -23.09,32.77 -85.85,220.13 -104.09,274.34 -3.65,10.84 -7.17,21.35 -10.55,31.6l130.32 0zm-6528.94 -2665.7c65.55,-28.13 70.19,-31.62 119.01,-59.6 89.13,-51.08 67.99,-18.5 113.71,-104.82 -39.18,-20.36 -132.46,-22.23 -180.79,1.09 -20.44,9.87 -38.87,29.46 -51.93,53.08l0 110.25zm223.48 -1108.29c-2.44,63.5 7.32,142.63 82.83,178.33 45.07,-48.62 66.23,-72.09 98.57,-128.51 46.18,-80.57 34.69,-62.05 18.87,-155.36 -76.75,1.96 -150.39,46.98 -200.27,105.54zm-205.15 -2451.35c37.61,49.21 100.09,106.15 164.27,89.74 38.28,-72.9 4.44,-56.42 16.99,-154.33 55.01,-66.58 60.56,-55.53 56.36,-139.24 -98.63,4.73 -236.08,93.84 -237.62,203.83zm163.09 1950.67c34.1,67.1 70.65,130.32 138.84,165.6 7.56,-19.5 59.69,-305.66 57.7,-326.77l-93.42 -38.21c-40.97,109.05 -45.81,105.61 -103.12,199.38zm-55.66 1141.98c46.16,-53.65 79.02,-89.13 113.1,-146.2 53.22,-89.11 57.25,-47.49 123.13,-114.52 -93.6,-62 -217.9,-62.57 -268,-9.2 -56.51,60.24 -35.85,215.92 31.77,269.92zm-125.76 -2449.55c26.32,30.26 65.11,48.39 116.02,43.01 21.2,-67.69 31.88,-98.96 66.71,-153.73 46.94,-73.83 43.65,-88.52 32.12,-195.34 -89.42,-43.08 -154.46,38.06 -214.85,115.74l0 190.32zm0 2738.31c4.01,-4.19 8.08,-7.54 12.27,-9.75l141.02 -46.83c-6.02,-66.33 -77.91,-114.8 -153.29,-119.44l0 176.02zm321.33 -2804.63c-71.35,65.07 -116.96,203.54 -52.89,288.26l101.26 -39.14c-1.39,-47.28 12.12,-94.51 29.45,-138.94 17.34,-44.52 14.84,-74.86 14.64,-110.27 -39.33,-6.84 -33.12,-54.05 -92.46,0.09zm111.57 2359.17c-56.81,13.92 -136.9,62.36 -150.08,114.71 -11.36,45.02 43.3,119.53 92.86,157.88l13.66 -124.28c68.45,-53.87 51.67,-56.57 43.56,-148.31zm-432.9 1244.44c3.3,1.51 6.55,2.77 9.72,3.73l27.3 -102.38c-11.59,-10.81 -23.99,-18.8 -37.02,-24.89l0 123.54zm11596.94 -1900.46c30.1,-43.61 53.68,-120.64 36.77,-174.03 -17.11,-54.05 -75.38,-84.25 -142.46,-80.76 -4.51,34.1 -15.86,95.1 3.95,143.26 21.07,51.23 74.4,89.39 101.74,111.53zm-81.22 504.56l66.52 -172.77 7.16 -53.85c-84.18,-1.44 -127.79,19.9 -155.64,107.11 -22.12,69.26 2.68,150.72 81.96,119.51zm-164.35 2385.21c99.65,33.19 149.03,92.44 225.13,63.46 33.83,-107.55 -138.84,-188.4 -225.13,-197.7l0 134.24zm272.95 197.09c47.94,57.25 78.27,81.09 123.6,122.32 23.34,21.24 41.49,42.02 59.56,57.9l0 -225.62c-8.35,-5.86 -16.76,-11.27 -25.1,-16.19l-158.06 61.59zm-272.87 -5209.67l73.05 -41.27 38.1 -100.97 16.27 -68.25 -127.42 -2.57 -0.08 13.81 0 182.1 0.08 17.15z"> </path> <g> <path id="B" class="fil2" d="M3699.44 6468.39c30.27,-124.16 54.31,-249.85 69.56,-377.58 103.14,63.21 162.49,200.71 191.9,377.58l145.26 0c-356.66,-672.75 -879.07,-1109.5 -861.25,-1436.75 -62.5,82.91 27.31,189.82 21.14,294.37 -168.98,-15.26 -190.96,-390.53 -28.14,-378.74 -0.13,19.24 -0.25,38.43 -0.38,57.66 30.6,-25.37 25.91,-113.79 36.2,-164.8 301.94,121.17 898.42,668.72 1043.29,930.58 -127.99,406.27 -101.8,341.33 265.29,397.27l25.39 300.41 51.59 0c-3.69,-52.53 -4.77,-93.02 -2.74,-116.76 24.47,11.94 53.73,53.69 84.41,116.76l232.99 0c-145.23,-236.34 -382.93,-672.7 -731.49,-1066.9 -334.51,-378.32 -290.51,-566.15 -478.62,-1053.31 -36.7,-95.07 -130.27,-270.65 -149.95,-348.86 18.07,2.49 36.19,5.02 54.29,7.54 0.25,-26.84 0.47,-53.71 0.71,-80.58 199.84,-151.81 410.21,206.75 288.86,329.67 -22,-1.49 -43.96,-3.04 -65.97,-4.52 92.18,99.93 59.52,182.25 182.12,299.4 98.28,-4.44 74.05,-42.19 198.95,-38.18 -6.93,-13.14 -13.88,-26.31 -20.81,-39.48 135.07,-155.2 363.27,100.72 353.88,225.92 -20.2,9.09 -40.44,18.19 -60.62,27.29 100.41,313.36 224.04,118.9 374.44,71.01 64.33,214.35 33.66,696.31 31.53,937.01 -4.21,484.06 25.54,480.65 88.1,733.99l162.08 0c-111.27,-434.49 -62.28,-1183.53 -0.05,-1490.94 56.11,50.71 624.36,1042.33 860.87,1490.94l168.08 0 -935.99 -1696.63c235.14,-13.16 290.63,-2.7 497.57,-125.88 54.95,0.89 109.92,1.79 164.87,2.68 32.47,12.42 588.78,646.69 644.27,737.21 -61.35,206.14 -154.32,779.2 -224.53,1082.62l36.53 0c30.3,-133.49 64.88,-239.69 97.63,-286.2 70.87,54.79 18.46,178.44 -9.07,286.2l127.01 0c7.88,-57.99 35.57,-133.73 91.17,-229.29 54.17,-93.06 232.11,-87.33 303.83,-5.49 6.77,93.01 -17.69,172.5 -57.29,234.78l221.23 0c-30.92,-16.78 -54.35,-45.39 -64.92,-88.75 65.01,-125.9 281.64,-374.69 429.69,-210.99 100.07,110.65 -32.96,249.75 -177.64,299.74l410.68 0c-37.96,-70.44 2.2,-88.14 52.91,-144.69 103.07,1.17 175.66,35.39 167.11,144.69l368.7 0c-15.95,-60.93 3.6,-143.14 79.42,-248.7 55.94,-77.88 120.63,-216.93 229.14,-201.05 53.18,83.72 24.42,162.13 88.86,240.94 86.65,105.97 116.66,44.82 203.65,107.17 0.27,38.18 -11.29,72.12 -31.22,101.64l448.29 0c-23.52,-96.94 -5.1,-204.88 107.21,-196.1 2.66,150.36 44.96,165.61 84.35,196.1l373.97 0c152.73,-519.82 455.49,-1187.45 898.43,-1186.49 31.88,114.42 -358.83,736.38 -664.11,1186.49l73.27 0c118.39,-188.9 294.17,-414.02 355.56,-498.43 217.25,-298.71 336.09,-511.1 723.78,-515.06 121.14,45.17 102.03,207.92 0,267.71l0 0.01c-95.11,45.54 -518.59,465.4 -844.75,745.77l75.8 0c306.59,-245.21 602.64,-458.44 768.95,-594.34 586.41,-495.19 439.2,206 0,529.47l0 0.01c-16.78,8.62 -42.94,31.64 -75.74,64.86l182.08 0c104.72,-127.03 221.41,-281.6 349.77,-391.87l0 -309.99c-60.05,-40.02 -129.11,-110.52 -160.89,-148.45 43.97,-16.98 87.93,-33.96 131.91,-50.93 9.83,5.8 19.55,11.84 28.98,18.14l0 -315.31c-102.02,34.99 -186.59,41.99 -235.18,4.15 -102.34,-79.7 40.24,-268.58 235.18,-454.38l0 -145.79c-179.8,173.57 -392.66,369.43 -456.11,399.79 -124.72,34.84 -413.19,114.02 -517.98,-41.1 38.55,-66.24 459.81,-493.18 517.98,-521.69l0 -0.01c117.98,-66.57 195.26,-220.44 314.9,-289.37 63.29,42.66 103.61,77.27 141.21,104.92l0 -765.49c-76.69,-330.97 -41.29,-1156.26 0,-1544.77l0 -557.68c-131.62,-271.33 -247.64,-494.77 -324.44,-618.21 -11.38,6.89 -22.75,13.78 -34.13,20.66 -32.49,-32.53 -65.05,-65.22 -97.54,-97.76l0 -71.87c63.98,33.69 17.39,15.08 73.37,66.32 15.4,-21.59 190.03,-45.21 382.74,25.33l0 -244.18c-135.55,-8.1 -268.46,-6.54 -399.45,-27.73 5.49,-50.74 10.98,-101.49 16.47,-152.22 -24.34,7.99 -48.79,16.12 -73.13,24.12l0 -182.1c39.09,-1.06 78.3,-2.24 117.39,-3.31 -2.05,20.12 -4.12,40.21 -6.16,60.32 38.44,-57.24 42.5,-156.94 37.86,-257.32l-1084.61 0c5.66,15.24 9.38,34.43 10.57,58.81 -185.5,25.05 -371.03,50.08 -556.52,75.13 11.65,-26.67 39.5,-75.91 75.59,-133.94l-247.16 0c-159,146.85 -616.67,510.14 -690.72,545.93 -152.53,-55.53 -264.65,-100.72 -432.37,-80.12 129.43,-99.76 374.77,-326.25 624.01,-465.81l-206.06 0c-160.68,161.96 -610.49,443.33 -725.48,523.38 -126.28,-50.73 -252.6,-101.49 -378.88,-152.22 90.65,-67.45 328.5,-242.29 568.35,-371.16l-143.29 0c-217.63,131.32 -491.53,279.52 -571.43,321.2 -79.56,-167.85 -63.53,-157.86 -249.26,-197.72 35.12,-29.45 97.2,-74.17 174.92,-123.48l-212.77 0c-104,36.96 -191.91,61.67 -239.84,67.13 1.89,-25.64 3.11,-47.81 3.58,-67.13l-300.82 0c64.66,105.42 51.86,243.77 -154.32,209.98 -5.48,-95.38 33.62,-51.6 37.48,-131.21 -54.56,-53.66 -104.73,-38.75 -144.97,-78.77l-528.55 0c-0.39,16.52 2.61,36.53 11.11,63.58 52.89,20.78 105.78,41.54 158.68,62.32 4.96,-15.74 9.92,-31.49 14.9,-47.23 40.15,18.79 80.34,37.57 120.49,56.36 20,75.44 33.61,115.64 3.15,189.61 -27.85,-1.42 -55.69,-2.85 -83.56,-4.27 -9.23,126.6 -7.07,141.27 109.36,175.32 -2.01,36.93 -159.89,1395.12 -258.22,1475.14 -467.44,380.36 -306.73,-1332.14 -309.75,-1809.18 -0.24,-37.92 3.44,-93.53 10.28,-161.65l-320 0c-406.3,853.28 -997.68,1791.24 -1227.12,2059.27 -149.11,-3.66 -272.28,-52.58 -364.98,-163.61 -15.77,-386.48 792.39,-868.78 1341.11,-1895.66l-205.94 0c-532.02,906.37 -1354.83,1978.34 -1670.35,1962.13 -2.54,-29.32 15.61,-79.73 20.18,-96.51 -8.2,-3.36 -24.24,-7.26 -29.1,-6.41 -10.11,29.47 -20.23,58.92 -30.34,88.38 -171.02,-133.25 -80.25,-649.7 50.52,-780.26 -27.35,142.43 -14.1,528.11 -20.18,691.88 8.06,-1.94 26.87,6.12 29.1,6.41 68.36,-118.18 5.31,-575.25 58.45,-701.56l1107.58 -1164.06 -263.39 0 -705.16 732.39c-98.44,122.46 -95.73,212.39 -276.49,245.17 5.67,-70.42 243.33,-763.71 331.15,-977.56l-105.87 0c-193.9,480.26 -410.69,1082.7 -483.95,1567.75 -96.24,-71.3 -171.83,-302.62 -216.26,-414.98 -24.57,-77.32 49.84,-688.07 118.22,-1152.77l-86.75 0c-49.43,282.42 -127.24,562.08 -213.61,820.66 -65.38,-134.67 -144.35,-500.35 -185.31,-820.66l-130.54 0 7.9 20.8c352.97,921.55 -95.62,585.74 952.62,2056.98 -23.71,138.38 -107.39,354.02 -182.94,457.05 -159.12,-92.54 -409.06,-376.74 -526.48,-525.47 -156.02,-197.55 -25.49,-142.81 -4.84,-357.08 19.5,-202.06 -223.77,-140.94 -340.75,-163.12l-115.18 -1489.16 -171.49 0c116.74,338.76 224.48,1146.08 208.15,1308.61 -154.99,-145.57 -330.65,-906.47 -303.56,-1308.61l-274.13 0c-47.78,40.58 -108.86,48.74 -147.28,0l-77.42 0c150.85,271.8 392.89,748.37 387.19,795.8 -121.93,-16.99 -301.39,-531.29 -404.86,-619.82 -14.19,-59.61 -30.47,-117.82 -46.81,-175.98l-59.61 0 7.05 17.02c39.13,93.25 82.66,165.49 122.54,263.15 63.26,154.96 184.05,334.6 232.74,476.47 -182.49,-51.49 -330.02,-140.3 -542.54,-187.35 -220.82,-48.91 -433.89,-25.1 -642.11,-58.79 5.5,-50.72 10.98,-101.48 16.46,-152.22 -24.34,8.01 -48.78,16.15 -73.12,24.13l0 -182.09c39.08,-1.08 78.31,-2.27 117.39,-3.33 -2.05,20.13 -4.12,40.22 -6.16,60.33 38.44,-57.24 42.51,-156.93 37.86,-257.32l-595.94 0 0 742.1c65.42,-83.31 96.71,-183.3 201.01,-133.05 7.3,67.62 -67.01,213.76 -94.43,301.26 -59.77,6.31 -91.38,-11.94 -106.58,-44.81l0 459.35c104.32,-36.33 224.57,-84.15 357.87,-167.46 29.66,28.79 59.32,57.57 88.98,86.36 255.18,218.67 307.15,715.76 245.28,1028.6 19.94,-116.19 -140.65,-383.29 -245.28,-430.37l0 -0.01c-171.26,-86.26 -325.05,-132.29 -446.85,-165.02l0 261.12c12.18,5.19 21.83,9.68 28.37,13.26 -9.35,53.32 -24.62,110.82 -28.37,166.41l0 46.86c2.59,33.23 11.42,65.07 30.55,94.11 -9.02,-0.26 -19.26,-0.95 -30.55,-2.06l0 114.64c77.61,32.71 138.04,61.24 162.46,78.27 -24.69,108.4 -63.57,165.3 -83.01,294.42 -22.66,-3.47 -49.55,-9.16 -79.45,-16.83l0 113.53c19.33,12.66 34.12,23.49 43.02,31.81 -15.55,9.22 -29.89,17.76 -43.02,25.99l0 566.3c64.52,-4.25 121.56,25.21 127.44,89.89 -56.86,6.73 -97.54,21.5 -127.44,39.91l0 117.76c30.21,-65.93 150.38,-96.58 211.93,-64.61 -20.14,38 -143.83,107.63 -209.49,135.67 -0.88,-1.86 -1.68,-3.71 -2.44,-5.55l0 540.64c6.23,5 12.93,10.88 20.42,17.87 -4.69,23.43 -9.35,46.83 -14.04,70.26 -2.14,-0.65 -4.27,-1.37 -6.38,-2.17l0 541.73c132.6,-146.35 401.28,-413.5 446.85,-435.83l0 -0.01c117.98,-66.57 195.26,-220.45 314.9,-289.36 169.41,114.16 174.23,170.7 402.77,190.48 -90.64,100.25 -611.88,611.07 -717.67,661.68 -102.61,28.66 -316.04,87.31 -446.85,20.83l0 526.24c109.59,-102.3 239.92,-163.81 446.85,-165.92 121.14,45.17 102.02,207.91 0,267.71l0 0.01c-58.29,27.92 -239.9,196.42 -446.85,387.22l0 107.78c181.17,-138.19 340.56,-256.71 446.85,-343.57 586.41,-495.18 439.19,206.01 0,529.48l0 -0.01c-16.78,8.63 -42.93,31.66 -75.74,64.87l182.07 0c167.82,-203.59 366.43,-477.99 594.49,-527.23 83.71,64.66 135.26,179.55 143.33,292.29l-466.74 234.94 413.71 0 308.87 0 1535.18 0c22.12,-8.59 47.72,-12.84 76.81,-11.74l0.25 11.74 39.67 0c118.38,-136.59 259.22,-284.04 146.2,-457.22 -17.95,19.6 -35.91,39.16 -53.83,58.74 -180.14,-49.5 -137.35,-309.46 -16.98,-408.13 25.57,4.74 51.15,9.49 76.72,14.21 15.58,-35.75 31.19,-71.5 46.77,-107.28 174.66,223.51 184.85,205.3 181.82,387.07 -4.95,298.41 2.29,412.99 -78.05,512.61l204.7 0zm6173.38 -346.14c34.73,1.88 69.45,3.75 104.16,5.63 -29.49,64.75 -59.02,129.47 -88.53,194.22 -66.44,-30.78 -68.22,-43.11 -90.07,-120.6 24.82,-26.4 49.63,-52.84 74.44,-79.25zm-603.49 45.76c-286.34,99.98 -507.74,-203.13 -337.46,-396.62 40.32,1.48 80.69,2.96 121.03,4.44 124.05,332.45 287.57,281.12 216.43,392.18zm-4963.06 -147.91c4.32,-98.77 0.58,-156.11 83.4,-193.25 57.65,43.42 94.98,107.1 72.58,180.4 -144.29,-30.13 -69.83,9.61 -155.98,12.85zm3630.67 187.42c-67.89,-162.97 337.76,-551.48 449.39,-686.27 55.27,135.5 114.68,178.23 198.37,286.4 -21.44,89.17 -374.88,530.38 -647.76,399.87zm-6208.08 81.18c23.83,-218.17 607.61,-431.61 796.32,-436.31 -197.83,304.64 7.46,341.37 149.01,486.04 -212.29,68.3 -802.86,167.26 -945.33,-49.73zm7920.05 -438.36c37.97,-90.89 140.05,-150.78 237.84,-150.45 27.69,32.79 55.4,65.61 83.11,98.42 -14.48,117.1 -45.01,152.25 -154.53,182.16 -55.48,-43.38 -110.94,-86.75 -166.42,-130.13zm-6669.47 356.88c-325.36,60.17 -343.07,-469.27 -52.06,-485.77 56.65,112.35 -56.82,108.01 -31.75,250.95 19.15,109.21 193.24,109.96 83.81,234.82zm6219.16 -567.79c79.69,-30.16 202.35,256.99 213.54,336.87 -137.72,-28.28 -278.38,-196.17 -213.54,-336.87zm-6100.14 390.76c-93.75,-127.94 -106.88,-378.25 29.59,-363.78l-29.59 363.78zm6254.98 -460.41c65.57,7.35 182.92,188.38 218.56,255.45 -144.06,-6.67 -233.84,-111.29 -218.56,-255.45zm-8374.02 224.68c-56.05,19.33 -194.78,-117.61 -244.03,-176.39 43.99,-16.98 87.95,-33.94 131.93,-50.92 88.3,52.06 167.45,123.82 112.1,227.31zm7919.52 -262.46c-159.75,203.4 -496.8,-191.84 -175.01,-274.67 51.07,63.6 23.96,96.99 67.19,152.44 50.26,64.48 80.14,20.79 107.82,122.23zm1194.85 32.03c-80.22,-139.43 -17.91,-398.5 162.32,-398.74 153.68,135.33 -13.48,407.96 -162.32,398.74zm-1991.12 -636.31c245.59,239.2 258.7,332.85 74.92,628.55 -116.15,186.88 -183.78,461.08 -437.76,500.97 -586.11,92.03 303.5,-1067.53 362.84,-1129.52zm3211.85 431.85c-23.13,-40.46 -23.56,-13.54 -5.54,-59.33 17.23,30.57 42.55,0.07 5.54,59.33zm-8797.26 269.94c-112.41,75.06 -1087.6,635.24 -1158.05,250.94 -45.26,-247.02 810.59,-634.23 1021.07,-664.43 -36.92,313 -56.55,304.33 136.98,413.49zm406.69 -173.04c-155.02,331.34 -541.85,-448.3 -89.34,-400.51 10.86,146.52 -69.81,98.11 -47.65,233.69 61.47,65.44 112.62,62.59 136.99,166.82zm135.71 -93.62c-201.41,13.32 -135.89,-352.25 -38.94,-330.66l38.94 330.66zm6047.3 16.16c-331.16,58.66 -329.45,-371.02 -110.57,-320.33 40.01,71.08 -8.65,58.55 -11.63,158.98 66.13,66.95 126.12,80.03 122.2,161.35zm-8098.14 41.12c59.84,-94.46 813.35,-625.11 919.41,-659.62 21.58,208.95 24.53,251.41 207.64,328.85 -115.08,127.95 -1048.74,811.15 -1127.05,330.77zm5887.36 -70.79c-71.64,-156.07 17.58,-638.92 221.34,-389.76 -11.22,106.7 -104.81,369.75 -221.34,389.76zm340.18 -414.1c-5.02,-103.17 33.29,-206.57 154.32,-158.19 1.46,86.77 -64.91,178.89 -154.32,158.19zm1255.37 -261.62c79.77,11.5 298.75,233.54 203.66,311.2 -124.76,101.88 -349.2,-191.77 -203.66,-311.2zm774.87 456.63c8.83,46.35 17.68,92.7 26.5,139.04 -126.36,-18.1 -122.2,-180.94 -118.02,-286.24 16.57,-7.17 33.16,-14.34 49.73,-21.52 -25,-70.08 -50.02,-140.19 -75.04,-210.26 149.34,27.57 473.15,362.89 535.05,502.84 -64.42,59.8 -217.8,203.88 -292.44,232.27 -50.86,-105.8 -49.38,-282.61 -125.78,-356.13zm-2145.24 743.58c-261.22,-212.92 275.25,-1005.14 415.34,-1208.75 20.09,-1.01 343.69,66.54 357.29,71.92 34.94,84.17 -586.48,1125.74 -772.63,1136.83zm3379.01 -890.89c-149.85,60.43 -370.77,-374.09 -205.73,-420.92 153.51,9.57 269.07,288.25 205.73,420.92zm-1563 -143.2c-140.59,-5.86 -298.39,-296.98 -101.19,-234.79 81.53,59.88 128.58,129.61 101.19,234.79zm-7145.47 -193.18c-153.47,203.51 -934.73,780.24 -1130.79,627.57 -215.12,-167.53 651.88,-817.54 812.91,-907.22 98.86,114.76 194.65,194.19 317.88,279.65zm8970.73 65.83c-17.2,-97.39 -59.03,-157.77 9.24,-237.23 60.9,31.8 62.94,47.92 84.13,119.47 -31.13,39.23 -62.27,78.51 -93.37,117.76zm-8181.63 -231.13c130.81,19.1 -37.29,31.93 253.88,232.27 -133.18,44.83 -351.98,-64.36 -253.88,-232.27zm3210.93 164.62c-97.03,-126.97 150.97,-224.09 322.45,-157.31 20.79,71.15 25.48,85.22 8.14,151.77 -69.05,-0.86 -299.08,-38.22 -330.59,5.54zm-3265.82 278.1c-277.12,99.22 -406.02,-345.52 -132.45,-385.7 3.33,405.89 107.53,199.09 132.45,385.7zm6503.18 -324.57c-84.66,-4.27 -129.48,-85.3 -104.77,-158.64 82.21,-31.6 115.39,91.22 104.77,158.64zm-995.64 -166.95c112.35,-107.34 264.11,25.99 286.74,145.89 -138.38,65.39 -323.05,2.95 -286.74,-145.89zm-2940 139.66c20.02,-210.87 405.6,-227.77 376.38,-25.88 -206.97,41.55 -117.66,-131.94 -376.38,25.88zm2406.63 -307.01c29.18,178.58 -201.81,376.83 -348.48,252.62 11.61,-184.64 157.04,-222.64 348.48,-252.62zm-5440.69 174.81c-205,104.53 -322.62,-131.73 -233.41,-289.07 55.78,8.45 228.67,232.88 233.41,289.07zm5546.61 32.14c-49.75,-149.56 155.33,-263.24 276.61,-219.75 38.35,116.4 -161.52,248.25 -276.61,219.75zm-1626.21 -126.01c-6.58,-158.48 297.27,-155.32 200.38,6.96 -66.79,-2.31 -133.6,-4.64 -200.38,-6.96zm-1284.91 145.89c-125.56,-2.1 -55.82,-43.14 -125.31,-119.05 -67.77,-74 -115.38,-23.07 -166.09,-94.91 41.22,-173.34 348.68,2.81 291.4,213.96zm6209.17 -84.7c-49.15,-14.97 -92.07,-68.62 -101.89,-122.07 56.36,7.96 72.9,11.69 115.9,51.8 -4.68,23.43 -9.32,46.83 -14.01,70.27zm-2385.31 32.76c-118.89,5.13 -170.91,-139.83 -157.88,-248.93 142.77,-41.3 226.39,131.7 157.88,248.93zm1980.95 6.62c-102.29,41.1 -223.59,-124.15 -278.84,-186.77 91.95,5.23 183.87,10.5 275.8,15.71 13.01,76.48 37.51,97.26 3.04,171.06zm-315.36 -228.61c-61.51,10.72 -163.35,-6.56 -208.71,-30.44 31.68,-67.72 181.82,-70.58 208.71,30.44zm-7999.23 50.36c-15.98,13.61 -31.96,27.27 -47.96,40.88 -84.16,-23.14 -112.35,-56.81 -127.94,-149.91 23.61,-8.29 47.22,-16.57 70.82,-24.88 31.51,35.35 86.71,98.48 105.08,133.91zm7743.83 -49.46c-43.64,121.2 -174.91,-21.24 -247.87,-75.2 39.85,-6.85 79.74,-13.74 119.58,-20.6l128.29 95.8zm-4729.14 -56.1c2.99,-293.18 630.74,-181.4 405.48,148.52 -160.8,-60.02 76.48,-112.02 -405.48,-148.52zm1676.42 188.89c-67.74,30.28 -135.48,60.53 -203.2,90.8 81.15,54.9 162.33,109.76 243.5,164.63 -85.29,197.28 -170.59,394.59 -255.9,591.88 -87.56,-72.05 -351.83,-406.32 -413.03,-515.49 88.99,-134.53 227,-194.98 397.06,-238.03 -1.55,-19.2 -3.1,-38.38 -4.68,-57.57 85.07,-81.11 198.62,-261.96 306.74,-219.3 14,91.34 0.22,85.39 -39.97,163.45 146.5,-54.99 285.95,-212.16 386.39,-246.28 -19.93,37.64 -249.76,334.77 -281.42,365.76 -62.17,-22.91 -111.01,-38.96 -135.49,-99.85zm-916.21 -225.55c28.69,-271.49 428.13,-213.7 416.07,16.7l-416.07 -16.7zm-3689.26 -145.55c68.81,79.42 137.61,158.83 206.41,238.23 -128.37,109.95 -252.22,-16.86 -287.06,-149.06 26.88,-29.71 53.74,-59.44 80.65,-89.17zm8224.15 185.86c-2.94,-153.17 151.43,-177.32 270.18,-139.79 2.49,61.86 -193.91,144.86 -270.18,139.79zm-2396.04 -201.42c57.74,56.16 62.58,49.73 49.49,123.97 -72.18,43.26 -112.39,26.66 -165.68,-32.63 3.18,-25.48 6.34,-50.98 9.52,-76.46 35.56,-4.95 71.1,-9.91 106.67,-14.88zm-3628.17 136.52c-173.77,-165.92 137.71,-260.7 283.52,-208.37 177.81,63.88 202.31,334.46 80.03,406.98 -126.51,-56.79 -32.19,-107.05 -120.37,-207.68 -81.06,3.03 -162.13,6.05 -243.18,9.07zm3037.49 -64.62c42.85,-84.33 222.02,-143.2 296.02,-73.81 -22.18,91.02 -223.94,129.26 -296.02,73.81zm-3714.09 907.17c-255.94,-125.92 -480.82,-333.69 -781.34,-398.77 -77.55,-164.98 -255.72,-354.04 -317.42,-541.88 206.9,-180.15 647.81,36.39 763.07,225.88 61.53,101.11 308.79,613.79 335.69,714.77zm6038.04 -1031.79c111.87,-15.11 190.55,-8.18 179.02,120.06 -86.6,9.89 -172.1,15.25 -233.08,-51.78 20.05,-49.96 6.75,-28.74 54.06,-68.28zm-367.46 127.68c8.87,-80.37 140.17,-135.72 210.72,-89 1.45,111.2 -135.14,141.57 -210.72,89zm-2744.22 27.64c82.11,-73.51 123.98,-201.14 253.07,-122.95 -23.78,67.93 -178.89,128.3 -253.07,122.95zm-5304.3 44.99c-59.08,78.32 -157.61,55.89 -256.79,55.18 -68.2,-128.16 50.04,-11.02 -160.44,-210.72 134.08,-119.58 111.39,-29.84 252.55,62.91 73.42,48.26 112.17,25.02 164.68,92.63zm9047.08 -79.31c40.39,-87.8 150.14,-151.37 255.05,-129.87 -26.54,57.33 -181.13,107.95 -255.05,129.87zm-8866.5 -73.52c-53.69,1.63 -107.41,3.27 -161.11,4.92 -51.33,-48.84 -44.63,-32.78 -53.19,-97.82 69.06,4.2 162.11,39.89 214.3,92.9zm8732.89 64.85c-219.8,-112.66 185.97,-437.42 274.42,-191.85 -72.08,47.45 -116.81,-1.66 -177.77,60.46 -58.86,59.93 2.36,89.27 -96.65,131.39zm-2141.74 -279.51c69.92,11.43 130.04,18.55 178.15,71.13 -47.25,62.26 -115.3,64.13 -199.15,51.12 7,-40.75 14,-81.5 21,-122.25zm-531.18 72.34c-79.2,45.95 -95.21,83.67 -183.46,64.71 2.88,-61.56 60.31,-138.41 96.86,-198.82 28.87,44.71 57.74,89.43 86.6,134.11zm-3512.91 270.12c-127.37,9.53 -66.5,-60.31 -135.44,-151.01 -49.01,-64.49 -114.51,-70.43 -156.09,-145.02 192.26,24.77 327.73,160.21 291.53,296.03zm5273.38 -300.37c224.26,-247.02 281.66,-114.83 439.76,60.04 -146.61,-20.01 -293.17,-40.01 -439.76,-60.04zm-1760.47 30.25c82.8,-36.79 241.45,-116.7 326.61,-75.76 -51.02,146.17 -207.61,127.08 -313.24,127.96 -4.46,-17.39 -8.9,-34.82 -13.37,-52.2zm3243.41 -33.47c-52.83,-111.82 128.77,-177.6 209.48,-135.68 -20.12,38.02 -143.82,107.64 -209.48,135.68zm-7060.73 -140.71c-85.05,-176.57 227.22,-229.17 338.16,-188.7 118.48,43.24 173.24,331.51 65.55,422.36 -108.97,1.24 -67.67,-121.38 -122.31,-181.13 -73.54,-80.46 -171.27,-31.99 -281.4,-52.53zm2917.44 147.42c10.21,-76.33 120.4,-198.99 178.09,-253.11l310.1 23.53c-22.69,174.62 -62.2,130.86 -208.49,153.97 -118.41,18.73 -187.4,88.47 -279.7,75.61zm3946.76 -89.38c-22.42,-250.4 306.97,-306.49 321.52,-146.06 -293.23,34.7 -157.28,282.75 -321.52,146.06zm-590.07 164.45c-109.05,-119.49 -377.45,-449.11 -263.01,-617.37 182.64,-21.7 429.29,247.08 547.73,358.91 -273.91,6.84 -201.61,77.37 -284.72,258.46zm-6671.1 -375.23c6.74,107.13 13.46,214.26 20.2,321.39 -332.76,-21.9 -490.06,-77.01 -824.31,18.61 -233.07,-305.78 589.3,-754.9 782.77,-748.2 2.67,41.8 5.35,83.54 8,125.31 17.7,-4.63 35.39,-9.25 53.09,-13.9 113.76,71.49 102.93,222.5 30.76,325.73 -23.51,-9.63 -46.99,-19.29 -70.51,-28.94zm-2522.55 147.81c-117.64,-280.33 -59.66,-1395.68 -10.06,-1733.28 156.29,219 682.4,1454.21 772.82,1750.87 -420.31,-34.53 -143.3,-123.09 -762.76,-17.59zm10345.92 -213.88c-107.1,-82.91 -45.37,-206.97 60.36,-232.91 8.11,91.77 9.8,71.78 -58.65,125.63 -0.57,35.77 -1.15,71.52 -1.71,107.28zm-236.04 -122.18c-127.58,-101.87 8.06,-356.14 207.22,-224.18 -65.86,67.02 -83.76,-1.68 -136.98,87.44 -34.08,57.07 -24.1,83.1 -70.24,136.74zm-1045.86 -406.23c194.57,-126.98 684.91,273.64 796.94,412.18 -144.39,59.39 -218.93,29.7 -237.77,223.82 -195.45,-121.84 -645.67,-364.79 -559.17,-636zm-6291.44 250.47c-36.9,-127.82 -66.8,-265.35 12.65,-366.46 256.28,0.77 200.03,370.26 -12.65,366.46zm-3021.58 -291.79c40.6,46.72 24.55,167.04 26.21,241.15 5.45,242.87 87.71,582.6 86.08,638.63 -79.69,17.3 -118.15,-45.39 -183.4,-97.34 -220.85,-175.8 14.44,-251.53 4.61,-609.66 -154.19,-0.3 -68.02,-212.46 63.46,-210.2 1.02,12.48 2.02,24.95 3.04,37.42zm2828.6 56.33c-33.52,63.23 -20.23,62.48 -96.82,75.49 -10.12,-74.04 -20.23,-148.09 -30.34,-222.15 96.09,-3.88 110.33,51.52 127.16,146.66zm-429.77 -46.76c-5.53,-60.03 -1.34,-101.04 31.52,-154.37 33.74,27.05 67.48,54.11 101.23,81.15 -44.24,24.4 -88.51,48.81 -132.75,73.22zm1601.86 740.1c8.1,-146.72 323.25,-875.9 436.97,-1043.25 33.81,-49.78 237.19,-166.83 313.05,-165.44 363.98,6.62 -200.05,1262.08 -329.57,1402.72 -92.72,-153.38 -201.79,-345.51 -420.45,-194.03zm5474.96 -893.2c0.04,-108.03 -17.39,-134.67 53.62,-203.34 107.81,14.08 660.53,290.45 740.55,365.21 -110.7,65.67 -159.56,96.01 -155.72,236.05 -119.21,-38.59 -594.64,-300.31 -638.45,-397.92zm-7199.11 39.27c-28.28,-61.74 -20.34,-92.29 -9.26,-161.12 21.05,15.87 42.13,31.73 63.17,47.6 3.39,49.85 9.47,107.43 -53.91,113.52zm8197.07 -42.85c49.87,-58.55 95.18,-101.08 171.92,-103.05 9.44,55.69 -64.75,192.26 -110.53,241.65 -75.51,-35.7 -63.84,-75.09 -61.39,-138.6zm-7153.12 491.03c110.45,-205.29 541.76,-737.64 769.99,-781.23 387.92,-74.11 -240.34,998.01 -271.74,1027.45 -29.43,-375.21 -230.97,-270.61 -498.25,-246.22zm4464.31 482.17c-61.32,-50.37 -122.64,-100.74 -183.97,-151.11 -54.8,345.74 -701.36,-145.78 -471.1,-432.77 74.06,84.84 263.01,278.74 353.55,329.44 -110.91,-281.23 -592.95,-760.67 -464.02,-1073.74 138.64,28.75 738.65,1254.66 765.54,1328.18zm-3049.84 -0.26c0.6,-24.31 170.68,-1398.51 710.14,-1241.89 59.98,119.72 -215.05,1140.67 -277.98,1313.19 -155.6,-113.06 -240.73,-195 -432.16,-71.3zm3771.68 -1128.66c188.42,-24.44 563.48,94.43 710.51,211.53 -14.57,82.45 -73.68,152.76 -150.25,189.54 -186.76,-133.7 -373.51,-267.38 -560.26,-401.07zm803.53 -142.99c22.08,15.26 44.15,30.52 66.26,45.79 9.25,92.15 -19.74,159.07 -126.32,156.07 20.02,-67.29 40.05,-134.59 60.06,-201.86zm-6405.5 223.24c-93.65,-81.37 -136.3,-180.35 -55.44,-278.53 116.63,-4.95 266.9,177.09 182.65,282.02 -42.4,-1.18 -84.78,-2.33 -127.21,-3.49zm2455.3 1092.71c123.91,-1466.85 703.86,-1729.04 677.3,-1276.18 -8.64,146.89 -156.34,1172.11 -181.55,1197.32 -55.27,26.84 -336.89,17.6 -495.75,78.86zm3581.92 -329.81c-334.7,-161.48 -693.09,-757.81 -970.11,-952.97 352.58,24.56 780.83,428.19 1047.04,653.06 -25.65,99.96 -51.29,199.93 -76.93,299.91zm-9022.64 -1109.63c133.29,-6.96 149.02,123.59 88.45,211.39 -53.04,-42.98 -97.76,-141.04 -88.45,-211.39zm8150.34 1798.56c-0.87,18.6 -1.74,37.19 -2.59,55.79 -92.55,11.75 -49.41,6.34 -115.85,38.43 -45.8,-50.06 -62.41,-131.75 -21.23,-200.25 24.92,8.88 49.79,17.75 74.71,26.62 -29.31,-64.01 -51.2,-93.4 -53.72,-165.99l435.06 124.86c-72.34,-78.43 -285.58,-171.09 -392.44,-191.12 -279.69,-506.42 -517.45,-936.95 -797.16,-1443.38 370.53,102.69 1361.31,1318.16 1334.91,1676.93 -21.67,0.98 -43.3,1.97 -64.96,2.94 130.42,39.78 244.47,155.24 351.18,223.95 263.61,-120.77 614.32,164 499.35,440.31 -49.44,118.83 -24.46,209.37 -62.17,305.53 -163.1,0.93 -975.89,-777.24 -1185.09,-894.62zm1515.69 -1924.77c106.49,-1.52 711.79,226.62 803.99,290.93 -24.69,108.39 -63.57,165.3 -83.01,294.41 -212.98,-32.59 -796.77,-259.73 -793.13,-518.28 24.06,-22.36 48.1,-44.69 72.15,-67.06zm-6378.74 -16.02c393.96,77.02 279.73,460.9 58.79,665.24 -19.59,-221.73 -39.19,-443.5 -58.79,-665.24zm2884.81 1204.55c-33.33,-251.56 56.74,-1596.03 591.24,-1522.34 31.77,238.63 -58.35,1044.4 -95.83,1315.96 -200.5,50.63 -349.12,47.19 -495.41,206.38zm4339.56 -1155.94c57.3,-93.78 45.78,-67.04 86.75,-176.08 20.21,9.99 40.44,20.01 60.66,30.04 1.97,21.1 -34.39,266.31 -41.95,285.81 -68.19,-35.28 -71.35,-72.67 -105.46,-139.77zm-5219.55 -73.88c10.31,-5.44 304.26,-52.07 329.29,-52.01 -37.61,255.68 -399.3,190.14 -329.29,52.01zm3394.81 1565.75c-325.15,-140.75 -492.82,-1021.45 -1400.16,-1437.5 -124.82,-57.23 -140.02,-76.29 -197.54,-198.51 406.15,-89.99 1632.08,1096.04 1805.18,1454.48 -56.46,91.14 -86.68,163.42 -207.48,181.53zm-2852.7 -1535.61c-30.5,-119.25 212.79,-182.19 307.39,-140.14 -31.68,119.21 -193.33,155.79 -307.39,140.14zm1399.24 -214.55c64.52,-34.9 471.04,-99.34 578.51,-120.73 231.73,-46.1 1254.38,463.13 1501.2,564.02 171.67,493.28 -1843.25,-257.86 -2079.71,-443.29zm2137.87 314.18c-81.92,28.11 -555.71,-147.95 -883.95,-283.69 -159.22,-65.84 -302.8,-97.26 -315.32,-139.15 117.14,-27.61 1464.29,26.02 1199.27,422.84zm151.68 -545.82c91.58,-3.61 725.4,202.08 812.92,250.04 -17.76,101.31 -56.9,217.7 2.18,307.37 -189.71,-5.49 -916.05,-199.71 -815.1,-557.41zm-1324.17 52.38c153.29,-109.36 1088.84,-271.39 1167.81,54.7 -166.89,76.19 -941.49,-31.39 -1167.81,-54.7zm-6352.11 -92.42c101,7.84 66.41,25.05 156.51,-18.77 2.1,86.97 -4.04,137.89 -70.01,194.09 -73.3,-41.43 -90.69,-93.47 -86.5,-175.32zm5151.68 -21.69c272.82,-375.35 979.18,-72.98 1354.86,5.88 -219.62,72.05 -1127.1,183.99 -1336.57,132.84 -6.09,-46.24 -12.18,-92.47 -18.29,-138.72zm-1147.96 305.75c-101.51,-145.81 51.17,-1206.75 77.95,-1447.85 94.32,-19.28 176.31,32.85 260.75,78.48 68.9,290.11 202.7,1485.88 -338.7,1369.37zm-748.24 -927.17c116.06,182.52 50.96,986.85 -67.88,1152.48 -97.9,34.96 -271.35,-17.82 -344.43,-97.98 137.45,-351.51 274.88,-702.99 412.31,-1054.5zm4730.44 457.22c40.33,41.18 45.12,47.75 46.85,102.24 -97.58,-14.54 -195.11,-29.12 -292.69,-43.69 81.94,-19.52 163.92,-39.02 245.84,-58.55zm-572.97 50.84c18.18,-125.09 268.36,-152.27 361.4,-87.04 -21.38,82.92 -290.78,115.45 -361.4,87.04zm-1696.21 -511.93c95.63,-19.38 299.51,0.57 422.4,-9.29 356.2,-28.66 255.37,-191.11 654.58,218.51 100.95,103.55 241.14,159.03 376.3,216.1 -288.46,305.15 -1359.2,-74.02 -1691.46,-142.58 79.37,-94.25 158.79,-188.47 238.18,-282.74zm2406.56 354.39c-9.97,-127.55 197.9,-220.99 301.9,-209.09 -0.92,149.87 -205.41,244.66 -301.9,209.09zm-319.87 -67.92c-200.33,-373.35 640.79,-446.57 264.54,-115.26 -83.69,73.68 -122.81,156.06 -264.54,115.26zm-2197.3 -312.81c-63.96,136.25 -360.16,395.26 -475.34,515.77 -53.95,-185.21 -133.58,-411.58 -39.87,-582.51 145.05,-20.29 265.85,-13.85 404.59,37.5 35.1,-65.82 259.71,-75.63 330.72,-39.59 -29.55,82.64 -137.35,82.13 -220.1,68.83zm-5266.67 2064.9c-431,-426.65 -994.43,-1595.72 -1239.34,-2144.85 516.53,188.13 742.99,1008.48 1259.08,1525.09 -64.3,185.62 162.9,522.54 -19.74,619.76zm7121.64 -1865.53c-94.3,127.18 -124.53,205.8 -289.46,138.43 -152.47,-62.3 -462.32,-341.73 -549.6,-468.48 97.22,-82.78 943.66,-20.97 1072.92,46.61 -77.95,94.48 -155.93,188.97 -233.86,283.44zm1279.47 -107.5c-60,-79.34 33.27,-268.86 116.45,-254.39 0.31,60.67 -49.56,137.23 -47.22,216.53 -23.08,12.61 -46.15,25.26 -69.23,37.86zm-2769.6 -251.58c-53.45,31.39 -179.09,0.05 -229.06,-31.93 94.04,-6.05 168.36,-48.38 229.06,31.93zm-1170.5 -89.48c9.14,-13.35 18.25,-26.65 27.39,-39.98 118.06,-17.36 207.48,-16.91 278.99,90.82 -24.49,22.11 -48.96,44.22 -73.45,66.33 -67.04,-40.74 -134.07,-81.46 -201.11,-122.19 183.49,303.65 6.64,814.62 -129.6,923.38 -152.61,-66.49 -223.64,-818.95 -246.2,-1000.69 188.75,80.57 145.57,50.21 343.98,82.33zm1109.5 -60.47c57.38,-44.6 173.58,-50.88 249.45,-56.28 87.51,108.94 106.99,63.3 187.89,130.9 -119.96,51.66 -323.28,-5.56 -437.34,-74.62zm2540.65 76.34c72.66,-85.31 101.63,-198.34 211.22,-145.55 7.31,67.61 -67,213.74 -94.44,301.23 -111.15,11.76 -124.96,-61.47 -116.78,-155.68zm-3177.31 -37.93c-67.18,34.89 -123.84,-12.84 -181.45,-56.82 39.92,-53.68 157.42,-31.38 181.45,56.82zm-3161.86 1450.5c28.69,-116.94 911.01,-1791.29 1135.42,-1971.14 49.98,547.13 -426.79,1488.9 -651.31,1901.95 -161.37,23.06 -322.75,46.13 -484.11,69.19zm6234.85 -1293.77c-122.82,57.32 -386.99,9.58 -351.43,-169.2 27.06,-135.95 276.17,-230.81 368.07,-128.61 -48.81,259.41 0.24,195.8 -16.64,297.81zm-3004.69 -246.02c-46.18,-35.88 -99.99,-48.26 -144.77,-77.45 87.61,-78.86 317.57,-36.23 291.15,139.73 -102.37,24.36 -77.56,-8.78 -146.38,-62.28zm3419.12 -204c73.48,23.59 115.98,119.58 18.99,159.88 -32.08,-48.32 -38.41,-107.59 -18.99,-159.88zm-4360.16 20.93c91.39,-67.6 244.81,-13.96 276.16,99.09 -85.14,53.2 -174.88,-77.14 -276.16,-99.09zm2424.43 270.05c366.97,-371.99 593.42,-615.8 1158.19,-531.77 103.1,246.45 -213.9,370.38 -223.78,617.89 -311.47,-28.69 -622.93,-57.42 -934.41,-86.12zm-1980.22 -310.66c-53.92,-59.8 -120.04,-71.35 -186.41,-113.85 140,-191.83 518.85,235.96 179.95,212.25 2.15,-32.8 4.28,-65.59 6.46,-98.4zm3561.88 69.09c-456.38,248.1 -402.25,-555.41 18.34,-312.35 -3.53,81.85 -46.78,110.43 -43.33,166.74 4.28,70.14 61,72.82 24.99,145.61zm99.22 -219.51c1.55,-109.99 96.36,-192.6 194.97,-197.33 4.22,83.71 -8.54,45.18 -63.55,111.75 -12.54,97.93 31.41,71.33 -6.88,144.23 -64.18,16.4 -86.91,-9.44 -124.54,-58.65zm-4400.61 -19.3c6.24,-217.98 0.58,-60.54 -50.81,-185.66 208,-48.28 165.43,243.25 50.81,185.66zm-2753.35 -233.99l68.75 93.58c9.3,12.69 -330.56,808.16 -321.26,820.82 9.56,-9.25 27.83,-24.69 60.62,-78.04 102.1,-198.72 312.51,-672.17 320.81,-660.8 3.11,4.22 6.3,8.56 9.45,12.86l172.98 -188.42 -311.35 0zm-3348.76 690.77c63.99,33.69 17.38,15.09 73.37,66.32 26.08,-36.58 508.9,-79.06 762.82,340.24 251.73,415.7 1238.02,1712.79 1340.75,2074.69 -276.93,256.17 -283.91,128.93 -365,404.36 -143.09,49.22 -238.52,38.53 -338.82,210.39 -18.86,-5.79 -37.7,-11.58 -56.55,-17.36 -55.42,68.15 -296.73,70.05 -330.39,-30.83 84.01,-125.28 248.65,-51.41 335.7,29.75 -90.56,-436.41 -989.92,-2445.93 -1290.21,-2928.57 -11.37,6.88 -22.75,13.76 -34.13,20.64 -32.49,-32.55 -65.04,-65.22 -97.54,-97.77l0 -71.86zm0 2054.85c21.54,-3.36 43.12,-6.76 64.66,-10.13 7.5,49.44 -14.88,111.88 -64.66,134.58l0 -124.45zm0 992.89l0 0.15c21.82,-4.42 42.05,0.76 42.05,11.14 0,9.7 -21.8,42.5 -42.05,49.07l0 0.03c-121.12,33.01 -275.96,128.88 -365.76,88.02 30.29,-110.88 130.25,-171.83 252.35,-159.35 -2.09,15.93 -4.18,31.86 -6.27,47.79 39.9,-12.29 79.78,-24.56 119.68,-36.85zm0 186.61l0 0.01c35.3,-9.88 70.72,-23.7 106,-33.56 3.75,61.36 -43.04,114.33 -106,147.55 -77.62,75.4 -155.25,150.8 -232.87,226.2 -101.16,-36.57 -107.83,-79.04 -166.04,-164.12 132.98,-58.68 265.93,-117.39 398.91,-176.08zm0 1373.41c86.3,9.31 228.18,60.36 207.55,162.04 -76.11,29 -107.91,-36.12 -207.55,-69.3l0 -92.74zm791.12 1169.25c68.64,-30.31 137.29,-60.58 205.93,-90.81l102.94 90.81 -308.87 0zm10569.51 -39.63l-78.72 39.63 78.72 0 0 -39.63zm-456.11 -1036.89l0 -92.72c86.29,9.3 228.18,60.36 207.55,162.04 -76.1,28.99 -107.9,-36.13 -207.55,-69.32zm0 -1352.14c-77.62,75.4 -155.26,150.79 -232.88,226.2 -101.14,-36.57 -107.83,-79.04 -166.03,-164.11 132.97,-58.69 265.93,-117.41 398.91,-176.08l0 -0.01c35.3,-9.87 70.71,-23.69 106.02,-33.56 3.72,61.37 -43.04,114.34 -106.02,147.56zm0 -240.23c-121.11,33.04 -275.96,128.88 -365.76,88.03 30.3,-110.88 130.25,-171.83 252.34,-159.35 -2.07,15.93 -4.18,31.86 -6.25,47.8 39.89,-12.29 79.77,-24.58 119.67,-36.86l0 0.13c21.81,-4.4 42.06,0.79 42.06,11.16 0,9.7 -21.82,42.5 -42.06,49.08l0 0.01zm0 -928.82l0 -124.44c21.53,-3.37 43.12,-6.77 64.66,-10.15 7.49,49.47 -14.89,111.88 -64.66,134.59zm0 -1028.1c-326.99,-164.7 -590.37,-182.79 -688.79,-241.49 -12.94,-55.51 -25.89,-111.03 -38.83,-166.55 138.08,-83.26 359.85,-102.29 638.65,-276.55 29.65,28.8 59.3,57.58 88.97,86.37 255.19,218.69 307.16,715.77 245.27,1028.6 19.96,-116.2 -140.65,-383.27 -245.27,-430.37l0 20.32 0 9.31 0 10.47 0 19.17 0 0.1 0 18.76 0 10.77 0 7.5 0 17.8 0 4.33 0 13.02 0 16.61 0 0.29 0 16.48 0 12.87 0 3.21 0 15.69 0 10.73 0 4.58 0 14.96 0 10.09 0 4.52 0 14.29 0 10.82 0 3.17 0 13.69 0 12.78 0 0.65 0 13.16 0 12.92 0 2.9 0 9.8 0 12.49 0 7.34 0 4.96 0 12.12 0 11.96 0 0.6 0 11.22 0 11.7 0 6.71 0 4.88 0 11.49 0 11.42 0 1.84 0 9.52 0 11.32 0 8.8 0 2.49 0 11.28 0 11.29 0 4.57 0 6.74 0 11.35 0 11.41 0 0.13 0 11.35 0 11.57 0 6.72 0 4.95 0 11.8 0 11.93 0 0.95 0 11.14 0 12.26 0 6.23 0 6.22 0 12.66 0 10.76 0 2.12 0 13.11 0 13.37 0 1.03 0 12.61 0 13.93 0 3.09 0 11.14 0 14.55 0 3.95 0 10.94 0 15.24 0 3.45 0 12.16 0 16 0 1.47 0 14.93 0 14.71 0 2.11 0 17.26 0 10.26 0 7.45 0 18.18 0 4 0 14.66 0 -903.66zm-30.19 3516.99c37.01,-59.26 11.69,-28.76 -5.54,-59.33 -18.02,45.79 -17.59,18.87 5.54,59.33zm-97.77 -4775.69c96.99,-40.3 54.49,-136.29 -18.99,-159.88 -19.42,52.29 -13.09,111.56 18.99,159.88zm-1535.49 3559.83c72.96,53.96 204.23,196.4 247.87,75.2l-128.29 -95.8c-39.84,6.86 -79.73,13.75 -119.58,20.6zm782.16 -110.39c73.92,-21.92 228.51,-72.54 255.05,-129.87 -104.91,-21.5 -214.66,42.07 -255.05,129.87zm-10053.41 1326.26c-23.15,-40.47 -23.58,-13.56 -5.56,-59.34 17.24,30.57 42.56,0.06 5.56,59.34zm-48.56 -1935.09c-107.11,-82.92 -45.37,-206.97 60.37,-232.9 8.11,91.75 9.78,71.76 -58.67,125.63 -0.56,35.76 -1.13,71.5 -1.7,107.27zm-236.05 -122.17c-127.57,-101.88 8.08,-356.15 207.24,-224.2 -65.87,67.03 -83.77,-1.66 -136.98,87.45 -34.09,57.08 -24.1,83.1 -70.26,136.75zm114.74 -594.67c49.88,-58.56 95.16,-101.07 171.92,-103.03 9.43,55.67 -64.75,192.25 -110.54,241.63 -75.51,-35.7 -63.82,-75.1 -61.38,-138.6zm-42.7 -515.82c57.32,-93.78 45.77,-67.04 86.74,-176.09 20.22,10.01 40.44,20.03 60.67,30.03 1.98,21.12 -34.39,266.33 -41.95,285.83 -68.19,-35.28 -71.35,-72.68 -105.46,-139.77zm75.65 -1111.41c-60.02,-79.35 33.25,-268.88 116.43,-254.41 0.33,60.7 -49.55,137.23 -47.22,216.53 -23.08,12.62 -46.14,25.26 -69.21,37.88zm20.15 -656.43c73.49,23.6 115.98,119.6 18.98,159.89 -32.07,-48.34 -38.41,-107.59 -18.98,-159.89zm-254.84 -170.09c1.55,-109.99 96.35,-192.6 194.98,-197.33 4.21,83.71 -8.56,45.18 -63.57,111.75 -12.55,97.92 31.4,71.33 -6.88,144.22 -64.18,16.41 -86.91,-9.43 -124.53,-58.64zm401.79 5620.15l0 -2.37 0 -0.11 0 -2.25 0 -0.22 0 -2.15 0 -0.3 0 -2.06 0 -0.39 0 -1.98 0 -0.46 0 -1.91 0 -0.52 0 -1.84 0 -0.57 0 -1.8 0 -0.62 0 -1.74 0 -0.66 0 -1.71 0 -0.68 0 -1.69 0 -0.7 0 -1.66 0 -0.72 0 -1.65 0 -0.72 0 -1.64 0 -0.73 0 -1.64 0 -0.72 0 -1.65 0 -0.7 0 -1.66 0 -0.69 0 -1.68 0 -0.67 0 -1.69 0 -0.64 0 -1.73 0 -0.61 0 -1.76 0 -0.57 0 -1.79 0 -0.54 0 -1.83 0 -0.49 0 -1.88 0 -0.44 0 -1.92 0 -0.4 0 -1.97 0 -0.34 0 -2.02 0 -0.29 0 -2.08 0 -0.23 0 -2.14 0 -0.17 0 -2.19 0 -0.12 0 -2.25 0 -0.06 0 -2.31 0 -2.31 0 -0.05 0 -2.25 0 -0.12 0 -2.19 0 -0.18 0 -2.13 0 -0.23 0 -2.08 0 -0.29 0 -2.03 0 -0.33 0 -1.98 0 -0.39 0 -1.93 0 -0.44 0 -1.88 0 -0.48 0 -1.84 0 -0.53 0 -1.8 0 -0.57 0 -1.76 0 -0.6 0 -1.73 0 -0.64 0 -1.7 0 -0.67 0 -1.67 0 -0.69 0 -1.66 0 -0.71 0 -1.65 0 -0.71 0 -1.65 0 -0.72 0 -1.64 0 -0.73 0 -1.65 0 -0.71 0 -1.67 0 -0.7 0 -1.68 0 -0.69 0 -1.71 0 -0.65 0 -1.75 0 -0.62 0 -1.79 0 -0.58 0 -1.84 0 -0.52 0 -1.91 0 -0.46 0 -1.97 0 -0.39 0 -2.06 0 -0.31 0 -2.15 0 -0.22 0 -2.24 0 -0.12 0 -2.36 0 -0.01 0 151.44zm-30.18 -514.47c37,-59.28 11.68,-28.77 -5.56,-59.34 -18.02,45.78 -17.59,18.87 5.56,59.34zm-97.79 -4775.7c97,-40.29 54.51,-136.29 -18.98,-159.89 -19.43,52.3 -13.09,111.55 18.98,159.89zm11263.36 2270.89c40.59,46.7 24.53,167.04 26.19,241.15 5.47,242.88 87.71,582.58 86.1,638.63 -79.69,17.3 -118.16,-45.4 -183.43,-97.35 -220.84,-175.8 14.45,-251.53 4.62,-609.66 -154.18,-0.31 -68.01,-212.45 63.46,-210.21 1.03,12.49 2.03,24.95 3.06,37.44zm-80.77 -569.35c133.31,-6.93 149.04,123.63 88.46,211.41 -53.04,-42.97 -97.76,-141.04 -88.46,-211.41zm-150.1 -442.83l0 -0.01 0 0.01zm0 2197.14l0 7.36 0 0.06 0 7.31 0 0.11 0 7.25 0 0.15 0 7.21 0 0.2 0 7.17 0 0.23 0 7.13 0 0.26 0 7.1 0 0.29 0 7.07 0 0.32 0 7.05 0 0.33 0 7.03 0 0.35 0 7.01 0 0.36 0 7.01 0 0.36 0 7 0 0.37 0 6.99 0 0.37 0 7 0 0.36 0 7 0 0.36 0 7 0 0.35 0 7.02 0 0.33 0 7.03 0 0.32 0 7.04 0 0.31 0 7.05 0 0.29 0 7.08 0 0.27 0 7.09 0 0.25 0 7.11 0 0.23 0 7.14 0 0.19 0 7.17 0 0.17 0 7.19 0 0.15 0 7.22 0 0.11 0 7.25 0 0.09 0 7.27 0 0.06 0 7.3 0 0.03 0 7.33 0 0.01 0 7.33 0 0.03 0 7.3 0 0.06 0 7.27 0 0.1 0 7.24 0 0.12 0 7.21 0 0.15 0 7.19 0 0.17 0 7.17 0 0.2 0 7.13 0 0.23 0 7.11 0 0.25 0 7.09 0 0.28 0 7.07 0 0.29 0 7.05 0 0.31 0 7.04 0 0.32 0 7.03 0 0.34 0 7.01 0 0.35 0 7 0 0.36 0 7 0 0.36 0 7 0 0.37 0 6.99 0 0.37 0 7 0 0.36 0 7.01 0 0.35 0 7.02 0 0.35 0 7.03 0 0.33 0 7.05 0 0.31 0 7.08 0 0.28 0 7.11 0 0.26 0 7.13 0 0.23 0 7.17 0 0.19 0 7.22 0 0.14 0 7.26 0 0.11 0 7.31 0 0.05 0 7.36 0 0.01 0 -471.23z"> </path> </g> </g> </svg>
