<?xml version="1.0" encoding="UTF-8"?> <!DOCTYPE svg PUBLIC "-//W3C//DTD SVG 1.1//EN" "http://www.w3.org/Graphics/SVG/1.1/DTD/svg11.dtd"> <svg xmlns="http://www.w3.org/2000/svg" xml:space="preserve" width="118mm" height="64.61mm" shape-rendering="geometricPrecision" text-rendering="geometricPrecision" image-rendering="optimizeQuality" fill-rule="evenodd" clip-rule="evenodd" viewBox="0 0 11800 6461" xmlns:xlink="http://www.w3.org/1999/xlink"> <g id="Layer_x0020_1"> <polygon id="A" fill="#CCCCCC" points="-5,-1 11801,-1 11801,6465 -5,6465 "> </polygon> <path id="B" fill="#5A5A5A" d="M9299 6465c-3,-5 -6,-10 -9,-15 -361,-622 -715,-75 -1163,-199 -448,-124 -899,-812 -1117,-1086 -218,-274 -902,-187 -1107,-230 -205,-44 -299,-417 386,-547 684,-131 1036,358 1254,495 218,137 827,-12 1350,50 523,62 460,417 1014,572 355,100 1255,-69 1895,-228l0 1188 -2502 0zm2502 -2201c-145,20 -306,27 -470,15 -516,-37 -1484,-532 -1807,-731 -323,-199 -597,-149 -952,-317 -355,-168 -3154,-236 -3254,-435 -100,-199 37,-392 -44,-653 -81,-261 -1107,0 -1045,-243 62,-243 454,-118 523,-336 68,-218 -728,37 -1076,-68 -348,-106 261,-199 653,-218 392,-19 659,37 927,25 268,-12 411,-199 672,-280 261,-81 373,62 859,-280 419,-295 -198,-607 -511,-743l5525 0 0 1388c-101,71 -161,284 -185,460 -37,267 -162,323 -566,355 -404,31 -1568,504 -1555,722 12,218 392,423 467,504 180,131 392,0 666,6 274,6 224,124 491,311 170,118 452,112 683,102l0 416zm-6055 -4264c-230,79 -497,211 -705,304 -361,162 -1611,6 -2233,106 -622,100 -1188,429 -1418,199 -230,-230 380,-168 603,-299 111,-65 104,-183 71,-310l3682 0zm-5752 6132c754,1 1530,-45 1885,-240 747,-411 1580,336 1767,12 187,-324 -1394,-709 -1966,-622 -572,87 -1406,348 -1381,-100 25,-448 261,-398 249,-622 -8,-148 -265,-371 -554,-399l0 1970zm5685 333c352,-255 682,-503 792,-387 103,110 -25,240 -181,387l-611 0z"> </path> <path id="C" fill="black" d="M11801 4631c-1008,-57 -2573,530 -2308,933 156,236 1767,193 1972,44 97,-70 217,-174 336,-236l0 -740zm0 1220c-479,68 -1347,155 -1599,161 -261,6 -1036,-202 -1036,-488 0,-286 19,-411 -205,-255 -224,156 -467,448 -859,317 -392,-131 -952,-261 -915,12 37,274 367,660 485,666 118,6 56,-448 268,-305 211,143 37,299 292,348 255,50 535,-454 908,-386 365,67 763,304 579,544l2080 0 0 -614zm-4547 614c-74,-51 -142,-81 -203,-83 -251,-8 -368,-38 -654,83l856 0z"> </path> <path id="D" fill="white" d="M146 4693c0,0 2451,199 3061,-25 610,-224 597,-398 1319,-411 722,-12 1095,-261 1294,-299 199,-37 1530,324 1966,274 436,-50 361,-149 796,-162 435,-12 672,-62 597,-174 -75,-112 -672,-261 -970,-324 -299,-62 -1107,-12 -1170,-62 -62,-50 1132,-100 1232,-162 100,-62 -274,-398 -373,-523 -100,-124 -299,-299 0,-274 299,25 647,323 771,261 124,-62 112,-361 361,-249 249,112 572,336 510,100 -62,-236 -432,-358 -327,-538 106,-180 510,-280 348,-417 -162,-137 -921,641 -1114,467 -193,-174 411,-367 386,-523 -25,-156 -81,-100 -485,25 -404,124 -448,149 -417,44 31,-106 324,-56 330,-230 6,-174 180,-187 249,-280 68,-93 429,-243 25,-348 -404,-106 -616,25 -529,-168 87,-193 411,-124 460,-311 35,-130 15,-278 31,-385l-2498 0c-115,78 -182,142 -136,171 137,87 778,-112 635,93 -143,205 -386,187 -411,355 -25,168 255,411 355,635 100,224 6,261 93,392 87,131 653,442 529,616 -124,174 -672,87 -1058,174 -386,87 -585,647 -1095,883 -510,236 -1036,184 -1316,-9 -280,-193 -504,-479 -796,-423 -292,56 -603,243 -715,423 -112,180 417,100 684,168 268,68 404,156 212,236 -193,81 -548,-106 -566,106 -19,211 386,156 19,280 -367,124 -3023,280 -2286,594zm10016 -4694c242,121 480,230 585,252 236,50 781,575 924,432 52,-52 102,-96 131,-151l0 -231c-25,-66 -68,-146 -137,-246 -13,-19 -26,-38 -39,-56l-1464 0zm-10167 2434c659,-51 1251,-179 1374,-375 210,-335 212,-423 908,-523 697,-100 1344,-199 635,-423 -709,-224 -1020,12 -1518,-12 -238,-12 -802,-10 -1399,-11l0 1344zm0 -2159c412,175 780,287 919,211 295,-162 576,-244 714,-485l-1633 0 0 274z"> </path> <path id="C_0" fill="black" d="M-5 5597c110,14 222,55 328,141 400,322 211,626 593,727l-921 0 0 -868zm3165 868c14,-9 27,-19 37,-30 249,-249 411,-423 597,-361 187,62 610,149 821,25 212,-124 722,-485 834,-212 71,173 -8,416 -135,578l-2154 0z"> </path> <path id="D_1" fill="white" d="M9950 6465c-32,-161 -308,-561 -678,-624 -398,-68 -728,479 -933,330 -531,-386 -833,-76 -916,295l2527 0z"> </path> <path id="C_2" fill="black" d="M671 4220c267,44 299,-386 274,-734 -25,-348 261,-50 460,-212 199,-162 87,-112 473,-212 386,-100 336,-274 548,-398 212,-124 -1456,336 -1257,-12 199,-348 535,-324 485,-684 -50,-361 -398,-759 -622,-423 -224,336 -261,137 -448,-137 -139,-203 -463,-468 -590,-311l0 579c137,516 489,775 652,1025 187,286 -324,324 -473,485 -72,78 -150,113 -179,161l0 91c19,44 63,101 142,183 286,299 52,586 535,597z"> </path> <path id="C_3" fill="black" d="M9716 216c-184,-82 -412,-41 -612,121 -463,373 -137,722 -821,759 -684,37 -1804,187 -2053,-62 -249,-249 -411,-423 -597,-361 -187,62 -610,149 -821,25 -212,-124 -722,-485 -834,-212 -112,274 149,722 386,747 236,25 729,210 1157,286 428,76 50,-37 25,435 -25,473 261,946 821,423 560,-523 162,-647 709,-672 547,-25 261,286 796,62 535,-224 734,-398 1605,-124 871,274 3120,-434 1921,-982 -567,-259 -878,-340 -1046,-325 -387,35 -214,68 -635,-120zm-9721 1239c119,81 392,-31 404,-177 9,-113 -101,-165 -228,-216 -123,-50 -265,-101 -90,-177 355,-155 902,31 635,-155 -268,-187 -628,-205 -659,-429 -12,-84 1,-196 39,-300l-101 0 0 1456z"> </path> <path id="D_4" fill="white" d="M7108 4034c-202,15 -1028,-127 -1176,-116 -652,48 -762,249 -606,214 698,-158 2091,160 1670,815 -88,137 -668,52 -805,246 -104,148 -986,-64 -1077,147 -85,523 1591,162 1995,224 516,491 678,-505 678,-779 0,-236 -243,-783 -678,-751z"> </path> </g> </svg>
