<?xml version="1.0" encoding="UTF-8"?> <!DOCTYPE svg PUBLIC "-//W3C//DTD SVG 1.1//EN" "http://www.w3.org/Graphics/SVG/1.1/DTD/svg11.dtd"> <svg xmlns="http://www.w3.org/2000/svg" xml:space="preserve" width="118.07mm" height="64.68mm" version="1.1" style="shape-rendering:geometricPrecision; text-rendering:geometricPrecision; image-rendering:optimizeQuality; fill-rule:evenodd; clip-rule:evenodd" viewBox="0 0 11807 6468" xmlns:xlink="http://www.w3.org/1999/xlink" xmlns:xodm="http://www.corel.com/coreldraw/odm/2003"> <defs> <style type="text/css"> <![CDATA[ .fil0 {fill:#CCCCCC} .fil2 {fill:black;fill-rule:nonzero} .fil1 {fill:#5A5A5A;fill-rule:nonzero} ]]> </style> </defs> <g id="Layer_x0020_1"> <g id="_1743548255760"> <g> <polygon id="A" class="fil0" points="11807.14,2.96 11807.14,6472 -5.21,6472 -5.21,2.96 "> </polygon> <path id="B_x0020_1" class="fil1" d="M11316.33 2.96l-2541.85 2249.58 -302.01 0 2541.84 -2249.58 302.02 0zm-7986.87 2249.58l-302.01 0 -2541.84 -2249.58 302.02 0 2541.83 2249.58z"> </path> <polygon id="C" class="fil2" points="4122.31,2.96 5900.96,1577.11 7679.61,2.96 7981.64,2.96 5967.27,1785.71 5900.96,1844.41 5834.65,1785.71 3820.29,2.96 "> </polygon> </g> <g> <polygon id="A_0" class="fil0" points="-5.21,2252.54 11807.14,2252.54 11807.14,5203.79 -5.21,5203.79 "> </polygon> <path id="B_x0020_1_1" class="fil1" d="M11807.14 2252.55l0 267.28 -3032.66 2683.96 -302.01 0 3268.37 -2892.57 66.3 -58.67zm-8477.68 2951.24l-302.01 0 -3032.65 -2683.96 -0.01 0.02 0 -267.28 0.01 -0.02 66.32 58.68 3268.34 2892.56z"> </path> <polygon id="C_2" class="fil2" points="3027.46,2252.54 3329.49,2252.54 5900.96,4528.36 8472.44,2252.54 8774.47,2252.54 5967.27,4736.96 5900.96,4795.66 5834.65,4736.96 "> </polygon> </g> <g> <polygon id="A_3" class="fil0" points="-5.21,5203.79 11807.14,5203.79 11807.14,6472 -5.21,6472 "> </polygon> <path id="B_x0020_1_4" class="fil1" d="M11807.14 5203.8l0 267.28 -1130.96 1000.92 -302.01 0 1366.67 -1209.53 66.3 -58.67zm-10681.38 1268.2l-1130.96 -1000.92 -0.01 0.02 0 -267.28 0.01 -0.02 66.32 58.68 1366.65 1209.52 -302.01 0z"> </path> <path id="C_5" class="fil2" d="M3027.46 5203.79l302.03 0 1432.96 1268.21 -302.02 0 -1432.97 -1268.21zm4012.01 1268.21l1432.97 -1268.21 302.03 0 -1432.98 1268.21 -302.02 0z"> </path> </g> </g> </g> </svg>
