<?xml version="1.0" encoding="UTF-8"?> <!DOCTYPE svg PUBLIC "-//W3C//DTD SVG 1.1//EN" "http://www.w3.org/Graphics/SVG/1.1/DTD/svg11.dtd"> <svg xmlns="http://www.w3.org/2000/svg" xml:space="preserve" width="118mm" height="64.61mm" version="1.1" shape-rendering="geometricPrecision" text-rendering="geometricPrecision" image-rendering="optimizeQuality" fill-rule="evenodd" clip-rule="evenodd" viewBox="0 0 11800 6461" xmlns:xlink="http://www.w3.org/1999/xlink" xmlns:xodm="http://www.corel.com/coreldraw/odm/2003"> <g id="Layer_x0020_1"> <polygon id="A" fill="#CCCCCC" fill-rule="nonzero" points="-1.22,6472.42 11811.68,6472.42 11811.68,3.72 -1.22,3.72 "> </polygon> <path id="B" fill="#5A5A5A" fill-rule="nonzero" d="M11261.75 6340.86c196.65,0 383.01,-43.9 549.96,-122.29l0 -2346.29c-166.95,-78.4 -353.31,-122.29 -549.96,-122.29 -715.45,0 -1295.44,579.99 -1295.44,1295.42 0,715.47 579.99,1295.45 1295.44,1295.45zm-21.7 -3426.99c205.21,0 399.23,-47.78 571.66,-132.72l0 -2325.42c-172.43,-84.93 -366.45,-132.72 -571.66,-132.72 -715.45,0 -1295.44,579.99 -1295.44,1295.42 0,715.46 579.99,1295.44 1295.44,1295.44zm-3518.75 3426.98c715.47,0 1295.46,-579.98 1295.46,-1295.44 0,-715.43 -579.99,-1295.42 -1295.46,-1295.42 -715.46,0 -1295.45,579.99 -1295.45,1295.42 0,715.46 579.99,1295.44 1295.45,1295.44zm-3627.68 0.01c715.47,0 1295.46,-579.98 1295.46,-1295.45 0,-715.43 -579.99,-1295.42 -1295.46,-1295.42 -715.45,0 -1295.44,579.99 -1295.44,1295.42 0,715.47 579.99,1295.45 1295.44,1295.45zm-3612.23 0c715.46,0 1295.45,-579.98 1295.45,-1295.45 0,-715.43 -579.99,-1295.42 -1295.45,-1295.42 -170.59,0 -333.44,33.04 -482.59,92.96l0 2404.96c149.15,59.91 312,92.95 482.59,92.95zm7218.21 -3426.99c715.47,0 1295.46,-579.98 1295.46,-1295.45 0,-715.43 -579.99,-1295.42 -1295.46,-1295.42 -715.46,0 -1295.45,579.99 -1295.45,1295.42 0,715.47 579.99,1295.45 1295.45,1295.45zm-3605.98 0c715.47,0 1295.46,-579.98 1295.46,-1295.45 0,-715.42 -579.99,-1295.41 -1295.46,-1295.41 -715.45,0 -1295.44,579.99 -1295.44,1295.41 0,715.47 579.99,1295.45 1295.44,1295.45zm-3596.8 0c715.47,0 1295.46,-579.98 1295.46,-1295.45 0,-715.43 -579.99,-1295.42 -1295.46,-1295.42 -176.48,0 -344.7,35.35 -498.02,99.26l0 2392.35c153.32,63.91 321.54,99.26 498.02,99.26z"> </path> </g> </svg>
