<?xml version="1.0" encoding="UTF-8"?> <!DOCTYPE svg PUBLIC "-//W3C//DTD SVG 1.1//EN" "http://www.w3.org/Graphics/SVG/1.1/DTD/svg11.dtd"> <svg xmlns="http://www.w3.org/2000/svg" xml:space="preserve" width="118.07mm" height="64.68mm" version="1.1" style="shape-rendering:geometricPrecision; text-rendering:geometricPrecision; image-rendering:optimizeQuality; fill-rule:evenodd; clip-rule:evenodd" viewBox="0 0 11807 6468" xmlns:xlink="http://www.w3.org/1999/xlink" xmlns:xodm="http://www.corel.com/coreldraw/odm/2003"> <defs> <style type="text/css"> <![CDATA[ .fil2 {fill:black;fill-rule:nonzero} .fil1 {fill:#5A5A5A;fill-rule:nonzero} .fil0 {fill:#CCCCCC;fill-rule:nonzero} ]]> </style> </defs> <g id="Layer_x0020_1"> <g id="_1742023616912"> <g> <polygon id="A" class="fil0" points="11818.13,-6.98 11818.13,6468.89 -2.09,6468.89 -2.09,-6.98 "> </polygon> <path id="B" class="fil1" d="M3987.97 820.12l63.77 83.77 525.89 -910.87 -227.47 0 -469.02 812.39 106.83 14.71zm-1963.18 182.28l-107.6 -13.84 -59.79 -90.24 -932.06 1614.46 106.05 8.74 65.31 88.41 928.09 -1607.53zm2784.44 1607.53l-928.09 1607.65 107.26 15.49 63.34 83.02 928.2 -1607.83 -108.45 -8.52 -62.26 -89.81zm-2784.44 1804.67l-107.51 -14.35 -63.09 -84.16 -928.09 1607.54 105.64 12.31 64.64 86.74 928.41 -1608.08zm2784.44 1607.54l-56.88 98.51 113.76 0 -18.63 -52.25 -38.25 -46.26z"> </path> <path id="C" class="fil2" d="M1328.32 -6.98l582.75 1009.38 1970.07 0 984.97 1706.04 1041.91 0 0 -196.99 -928.19 0 -984.94 -1706.04 -1970.1 0 -469.02 -812.39 -227.45 0zm4579.7 5930.61l0 197.02 -1041.91 0 -984.97 -1706.05 -1970.09 0 -984.95 -1706.16 -928.19 0 0 -196.99 1041.94 0 984.94 1706.13 1970.07 0 984.97 1706.05 928.19 0zm-4754.44 197.02l-227.48 0 -928.19 0 0 -196.99 1041.94 0 113.73 196.99z"> </path> </g> <g> <polygon id="A_0" class="fil0" points="11818.13,-6.98 11818.13,6120.65 5908.02,6120.65 5908.02,-6.98 "> </polygon> <path id="B_1" class="fil1" d="M9898.08 820.12l63.77 83.77 525.88 -910.87 -227.46 0 -469.02 812.39 106.83 14.71zm-1963.18 182.28l-107.6 -13.84 -59.79 -90.24 -932.06 1614.46 106.05 8.74 65.31 88.41 928.09 -1607.53zm2784.44 1607.53l-928.09 1607.65 107.26 15.49 63.34 83.02 928.2 -1607.83 -108.45 -8.52 -62.26 -89.81zm-2784.44 1804.67l-107.51 -14.35 -63.09 -84.16 -928.09 1607.54 105.64 12.31 64.64 86.74 928.41 -1608.08zm2784.44 1607.54l-56.88 98.51 113.76 0 -18.63 -52.25 -38.25 -46.26z"> </path> <path id="C_2" class="fil2" d="M7238.42 -6.98l582.75 1009.38 1970.08 0 984.97 1706.04 1041.91 0 0 -196.99 -928.19 0 -984.94 -1706.04 -1970.1 0 -469.02 -812.39 -227.46 0zm4579.71 5930.61l0 197.02 -1041.91 0 -984.97 -1706.05 -1970.09 0 -984.95 -1706.16 -928.19 0 0 -196.99 1041.94 0 984.94 1706.13 1970.07 0 984.97 1706.05 928.19 0zm-4754.44 197.02l-227.48 0 -928.19 0 0 -196.99 1041.94 0 113.73 196.99z"> </path> </g> <g> <polygon id="A_3" class="fil0" points="-2.09,6120.65 5908.02,6120.65 5908.02,6468.89 -2.09,6468.89 "> </polygon> <polygon id="B_4" class="fil1" points="4778.79,6468.89 4979.85,6120.65 4752.37,6120.65 4551.32,6468.89 "> </polygon> <polygon id="C_5" class="fil2" points="926.1,6120.65 1127.15,6468.89 1354.61,6468.89 1153.56,6120.65 "> </polygon> </g> <g> <polygon id="A_6" class="fil0" points="5908.02,6120.65 11818.13,6120.65 11818.13,6468.89 5908.02,6468.89 "> </polygon> <polygon id="B_7" class="fil1" points="10688.9,6468.89 10889.95,6120.65 10662.48,6120.65 10461.43,6468.89 "> </polygon> <polygon id="C_8" class="fil2" points="6836.21,6120.65 7037.26,6468.89 7264.72,6468.89 7063.67,6120.65 "> </polygon> </g> </g> </g> </svg>
